<?xml version="1.0" standalone="no"?>
<!DOCTYPE svg PUBLIC "-//W3C//DTD SVG 20010904//EN"
 "http://www.w3.org/TR/2001/REC-SVG-20010904/DTD/svg10.dtd">
<svg version="1.0" xmlns="http://www.w3.org/2000/svg"
 width="988.000000pt" height="988.000000pt" viewBox="0 0 988.000000 988.000000"
 preserveAspectRatio="xMidYMid meet">
<metadata>
Created by potrace 1.14, written by Peter Selinger 2001-2017
</metadata>
<g transform="translate(0.000000,988.000000) scale(0.100000,-0.100000)"
fill="#000000" stroke="none">
<path d="M4219 9505 c-3 -2 -33 -7 -68 -10 -77 -7 -286 -69 -322 -95 -15 -11
-38 -22 -52 -25 -14 -4 -34 -15 -46 -26 -11 -10 -24 -19 -30 -19 -22 0 -139
-133 -133 -152 1 -4 -2 -8 -7 -8 -19 0 -71 -99 -92 -175 -12 -44 -26 -89 -32
-100 -9 -18 -12 -214 -3 -280 2 -16 7 -55 11 -85 6 -50 18 -126 31 -188 4 -22
19 -63 81 -222 25 -65 136 -312 153 -340 5 -8 23 -44 41 -80 17 -36 48 -90 67
-120 20 -30 35 -58 34 -61 0 -4 8 -15 18 -24 11 -10 20 -22 20 -27 0 -14 82
-117 188 -235 17 -20 32 -41 32 -45 0 -5 9 -18 20 -30 l20 -21 -33 -22 c-57
-39 -134 -54 -295 -59 -37 -1 -73 -5 -79 -9 -23 -14 -14 20 16 67 60 96 62
182 3 246 -53 58 -125 44 -207 -38 -41 -42 -57 -46 -48 -12 3 11 1 26 -4 33
-6 6 -13 23 -16 37 -14 57 -114 81 -169 40 -33 -24 -48 -25 -48 -4 0 53 -65
114 -121 114 -27 0 -81 -29 -98 -52 -12 -18 -14 -18 -32 -2 -10 9 -39 19 -63
21 -38 5 -51 1 -80 -21 -44 -33 -45 -38 -59 -326 l-3 -55 -69 -1 c-37 -1 -90
4 -117 12 -60 15 -80 12 -128 -21 -36 -25 -37 -28 -33 -72 6 -65 26 -97 94
-151 63 -48 124 -137 160 -232 9 -25 29 -68 43 -96 14 -29 26 -56 26 -61 0 -5
15 -22 34 -37 19 -15 35 -35 35 -44 0 -9 2 -37 5 -62 3 -25 8 -67 11 -95 9
-87 14 -109 30 -150 13 -30 18 -81 20 -219 5 -222 9 -247 52 -304 35 -46 180
-153 243 -178 41 -16 67 -27 84 -36 77 -40 164 -50 212 -25 50 28 182 162 170
174 -3 3 0 10 5 17 6 6 20 26 32 45 12 19 27 42 32 50 6 9 16 26 23 38 l12 22
71 -40 c41 -23 99 -46 137 -54 36 -8 69 -20 73 -27 4 -7 19 -27 33 -43 41 -46
41 -47 56 -99 20 -74 17 -124 -14 -184 -18 -36 -29 -76 -33 -120 -9 -119 3
-107 -104 -105 -52 2 -597 5 -1211 8 -1355 7 -1301 12 -1433 -118 -79 -78
-132 -173 -141 -253 -7 -66 -7 -1343 1 -2044 6 -558 11 -640 35 -648 5 -2 10
-10 10 -18 0 -24 97 -109 168 -147 79 -42 107 -48 217 -53 44 -1 80 -3 80 -4
0 -2 151 -14 235 -19 17 -1 20 -38 25 -286 1 -66 5 -149 9 -185 3 -36 8 -146
11 -245 6 -274 16 -334 57 -379 10 -11 18 -25 18 -31 0 -17 89 -98 152 -139
80 -52 181 -83 333 -102 22 -3 47 -8 55 -11 24 -9 74 -10 91 -2 61 30 237 37
614 25 148 -4 312 10 365 31 25 10 33 10 70 -5 19 -8 46 -16 60 -18 94 -15
156 -28 165 -35 18 -14 67 -20 165 -19 114 1 179 7 194 19 13 10 219 71 241
71 8 0 23 -4 33 -10 9 -5 53 -19 97 -30 43 -12 84 -25 90 -30 5 -4 69 -7 140
-5 138 3 301 31 352 60 77 44 107 65 139 96 41 39 124 152 124 168 0 6 4 11 9
11 10 0 42 108 48 160 2 19 6 36 8 39 8 7 50 -27 145 -118 52 -50 118 -107
147 -126 55 -37 190 -105 209 -105 6 0 31 -9 55 -19 37 -16 100 -35 154 -45 6
-1 15 -5 21 -8 23 -15 86 -20 249 -19 180 0 222 3 252 19 10 6 48 18 83 26 36
9 81 23 100 30 51 21 74 29 86 31 21 5 216 106 247 128 77 54 244 211 278 259
13 18 28 36 33 40 25 17 143 238 152 285 2 12 22 79 45 148 53 166 55 174 58
262 1 38 8 41 121 48 103 6 129 11 208 40 86 31 187 88 229 130 24 24 56 72
73 106 l29 62 1 456 c1 251 3 517 5 591 3 74 6 214 9 310 7 242 8 1239 2 1270
-16 73 -20 87 -36 125 -18 40 -69 99 -105 122 -59 37 -135 72 -170 77 -183 29
-1660 37 -2098 11 -113 -7 -130 -12 -213 -66 -57 -37 -85 -42 -104 -20 -3 4
-30 17 -60 31 -30 13 -57 25 -58 26 -2 1 -8 22 -14 46 -13 58 -17 75 -23 96
-2 9 -14 58 -25 107 -12 50 -30 119 -41 155 -11 36 -22 82 -26 104 -10 65 -44
118 -93 143 -24 13 -45 25 -47 26 -3 4 -12 64 -18 132 -2 28 -7 70 -11 95 -7
51 -8 69 -2 123 3 26 -4 54 -22 95 -45 95 -65 211 -42 234 7 7 6 21 -3 48 -14
41 -36 82 -47 90 -7 6 -12 30 -23 125 -12 106 -116 267 -189 295 -38 14 -32
30 26 80 87 76 257 258 258 277 0 7 14 32 30 56 17 25 30 49 30 55 0 5 12 25
28 45 15 19 36 48 47 63 23 33 59 74 109 127 42 45 90 114 99 142 3 11 20 58
37 105 47 126 99 278 104 303 3 12 12 50 20 84 27 111 37 206 22 220 -13 14
-89 -34 -128 -79 -22 -27 -43 -46 -46 -43 -3 3 -7 33 -9 67 -8 140 -16 186
-57 307 -14 41 -32 81 -39 90 -7 9 -32 48 -54 86 -69 118 -225 267 -393 378
-47 31 -95 63 -107 72 -13 9 -26 16 -30 16 -5 1 -19 9 -33 19 -44 32 -276 116
-343 126 -16 2 -32 6 -37 9 -4 3 -25 8 -46 11 -22 3 -50 8 -64 11 -35 7 -355
14 -361 8z m152 -73 c-19 -3 -21 -6 -10 -13 10 -6 7 -8 -11 -5 -14 3 -27 5
-30 6 -16 6 -37 4 -49 -5 -12 -8 -13 -7 -6 4 6 11 4 13 -9 8 -9 -4 -15 -3 -12
1 2 4 37 8 78 8 40 0 62 -2 49 -4z m79 -1 c0 -4 -11 -6 -25 -3 -14 2 -25 6
-25 8 0 2 11 4 25 4 14 0 25 -4 25 -9z m70 -7 c2 -3 -7 -4 -22 -2 -15 2 -30 7
-34 11 -3 3 6 4 22 1 16 -3 31 -7 34 -10z m-113 -10 c-3 -3 -12 -4 -19 -1 -8
3 -5 6 6 6 11 1 17 -2 13 -5z m77 -6 c3 3 6 0 6 -6 0 -7 -10 -10 -22 -8 -13 3
-29 5 -35 5 -7 1 -13 5 -13 10 0 6 12 6 29 1 16 -4 32 -6 35 -2z m93 6 c-3 -3
-12 -4 -19 -1 -8 3 -5 6 6 6 11 1 17 -2 13 -5z m-567 -19 c0 -2 -9 -9 -20 -15
-12 -6 -20 -7 -20 -1 0 5 8 12 18 14 9 3 18 5 20 6 1 0 2 -1 2 -4z m98 -4 c-2
-5 6 -17 17 -26 11 -9 15 -14 9 -11 -6 3 -24 11 -40 17 -27 10 -27 12 -9 19
11 5 21 9 23 9 1 1 1 -3 0 -8z m425 2 c-7 -2 -19 -2 -25 0 -7 3 -2 5 12 5 14
0 19 -2 13 -5z m62 -21 c-3 -3 -11 0 -18 7 -9 10 -8 11 6 5 10 -3 15 -9 12
-12z m150 8 c3 -5 1 -10 -4 -10 -6 0 -11 5 -11 10 0 6 2 10 4 10 3 0 8 -4 11
-10z m-105 -6 c0 -8 -19 -13 -24 -6 -3 5 1 9 9 9 8 0 15 -2 15 -3z m107 -50
c-5 -5 -97 30 -97 38 0 4 23 -3 50 -14 28 -11 49 -22 47 -24z m-861 21 c-15
-8 -33 -15 -40 -15 -16 0 36 28 54 29 8 0 2 -6 -14 -14z m289 -3 c-3 -3 -11 0
-18 7 -9 10 -8 11 6 5 10 -3 15 -9 12 -12z m700 -2 c3 -6 -1 -7 -9 -4 -18 7
-21 14 -7 14 6 0 13 -4 16 -10z m-660 -18 c-3 -3 -11 0 -18 7 -9 10 -8 11 6 5
10 -3 15 -9 12 -12z m723 -1 c9 -5 26 -12 36 -16 10 -3 16 -8 13 -11 -3 -3
-25 3 -49 14 -23 11 -37 21 -30 21 7 1 20 -3 30 -8z m-1164 -37 c-20 -14 -34
-25 -74 -58 -14 -11 -6 0 18 25 24 25 50 46 59 46 13 0 12 -3 -3 -13z m1065
-11 c21 -16 44 -37 51 -48 9 -14 4 -13 -16 6 -16 15 -45 36 -64 48 -19 11 -29
21 -23 21 7 0 30 -12 52 -27z m187 0 c-7 -7 -26 7 -26 19 0 6 6 6 15 -2 9 -7
13 -15 11 -17z m-650 -34 c3 -6 -5 -3 -20 6 -14 10 -26 19 -26 22 0 7 39 -17
46 -28z m724 6 c7 -8 18 -15 24 -15 18 0 166 -100 166 -111 0 -6 -30 10 -66
35 -36 26 -83 55 -104 66 -38 20 -60 40 -42 40 5 0 15 -7 22 -15z m-650 -56
l45 -41 -50 38 c-27 21 -52 40 -54 41 -2 2 0 3 5 3 5 0 29 -18 54 -41z m-787
-8 c-16 -11 -74 -100 -99 -154 -14 -30 -22 -40 -19 -25 3 15 19 50 35 78 17
28 30 55 30 60 0 6 3 10 8 10 4 0 16 14 27 30 11 16 22 25 24 19 2 -6 -1 -14
-6 -18z m947 -168 c19 -26 25 -40 16 -37 -9 3 -16 10 -16 15 0 14 -91 130
-106 136 -8 3 -11 9 -8 14 5 9 57 -48 114 -128z m389 99 c13 -20 33 -50 43
-65 11 -16 18 -30 16 -32 -2 -2 -24 28 -50 66 -26 38 -44 69 -40 69 4 0 18
-17 31 -38z m366 -47 c22 -19 35 -35 29 -35 -6 0 -25 13 -41 29 -17 15 -36 31
-44 34 -11 4 -11 5 1 6 8 0 33 -15 55 -34z m-275 -110 c14 -19 14 -19 -2 -6
-10 7 -18 18 -18 24 0 6 1 8 3 6 1 -2 9 -13 17 -24z m-1556 -26 c-8 -22 -16
-53 -18 -70 -3 -33 -16 -52 -16 -24 0 29 32 135 40 135 4 0 1 -18 -6 -41z
m1144 -39 c17 -38 29 -70 27 -70 -3 0 -20 32 -38 70 -18 39 -30 70 -27 70 4 0
21 -31 38 -70z m813 43 c13 -16 12 -17 -3 -4 -10 7 -18 15 -18 17 0 8 8 3 21
-13z m-377 -49 c3 -8 2 -12 -4 -9 -6 3 -10 10 -10 16 0 14 7 11 14 -7z m-394
-109 c0 -5 -5 -3 -10 5 -5 8 -10 20 -10 25 0 6 5 3 10 -5 5 -8 10 -19 10 -25z
m-1214 -9 c0 -15 -5 -21 -10 -16 -5 5 -6 16 -3 24 9 23 15 19 13 -8z m1232
-51 c-3 -3 -9 2 -12 12 -6 14 -5 15 5 6 7 -7 10 -15 7 -18z m-1233 -15 c3 -5
1 -10 -4 -10 -6 0 -11 5 -11 10 0 6 2 10 4 10 3 0 8 -4 11 -10z m1 -85 c1 -14
-1 -25 -5 -25 -4 0 -7 13 -7 30 0 35 8 31 12 -5z m1 -57 c-3 -8 -6 -5 -6 6 -1
11 2 17 5 13 3 -3 4 -12 1 -19z m1690 -10 c-3 -8 -6 -5 -6 6 -1 11 2 17 5 13
3 -3 4 -12 1 -19z m-1680 -50 c-3 -8 -6 -5 -6 6 -1 11 2 17 5 13 3 -3 4 -12 1
-19z m488 -8 c10 -11 16 -20 13 -20 -3 0 -13 9 -23 20 -10 11 -16 20 -13 20 3
0 13 -9 23 -20z m69 -59 c-3 -3 -15 6 -27 18 l-22 24 27 -19 c14 -10 24 -21
22 -23z m-187 -33 c-3 -8 -6 -5 -6 6 -1 11 2 17 5 13 3 -3 4 -12 1 -19z m229
0 l19 -23 -25 20 c-14 11 -27 21 -29 22 -2 2 0 3 6 3 5 0 18 -10 29 -22z
m1101 -10 c2 -17 0 -19 -7 -8 -5 8 -6 18 -4 22 8 12 10 10 11 -14z m-1056 -25
c13 -16 12 -17 -3 -4 -17 13 -22 21 -14 21 2 0 10 -8 17 -17z m-251 -45 c0
-12 -3 -18 -7 -14 -10 10 -11 46 -1 40 4 -3 8 -15 8 -26z m324 -3 c11 -8 18
-17 15 -19 -2 -2 -20 10 -39 26 -34 29 -15 24 24 -7z m-264 10 c0 -2 -7 -5
-15 -9 -9 -3 -15 0 -15 9 0 9 6 12 15 9 8 -4 15 -7 15 -9z m1260 -5 c0 -5 -5
-10 -11 -10 -5 0 -7 5 -4 10 3 6 8 10 11 10 2 0 4 -4 4 -10z m-1190 -42 c0 -6
-6 -5 -15 2 -8 7 -15 14 -15 16 0 2 7 1 15 -2 8 -4 15 -11 15 -16z m292 -28
c70 -46 87 -60 43 -37 -40 21 -122 77 -113 77 4 0 35 -18 70 -40z m1566 20
c-7 -11 -16 -20 -21 -20 -4 0 -3 9 3 20 6 11 15 20 20 20 6 0 5 -9 -2 -20z
m-1977 -17 c0 -10 2 -26 4 -36 2 -9 -1 -14 -7 -11 -5 3 -7 8 -4 11 2 3 1 16
-4 29 -6 15 -6 24 0 24 6 0 10 -8 11 -17z m221 -41 c7 -7 -12 1 -40 19 -29 17
-52 34 -52 36 0 7 81 -41 92 -55z m-190 4 c2 -19 1 -33 -3 -30 -9 5 -17 64 -8
64 4 0 9 -15 11 -34z m845 -8 c-3 -8 -6 -5 -6 6 -1 11 2 17 5 13 3 -3 4 -12 1
-19z m-603 -23 c11 -8 16 -15 10 -15 -5 0 -18 7 -28 15 -11 8 -16 15 -10 15 5
0 18 -7 28 -15z m291 -33 c-5 -5 -63 26 -69 37 -4 5 12 0 33 -12 22 -12 38
-23 36 -25z m-550 28 c3 -5 1 -10 -4 -10 -6 0 -11 5 -11 10 0 6 2 10 4 10 3 0
8 -4 11 -10z m875 6 c0 -3 -4 -8 -10 -11 -5 -3 -10 -1 -10 4 0 6 5 11 10 11 6
0 10 -2 10 -4z m438 -31 c-3 -3 -9 2 -12 12 -6 14 -5 15 5 6 7 -7 10 -15 7
-18z m-1310 -20 c-3 -3 -9 2 -12 12 -6 14 -5 15 5 6 7 -7 10 -15 7 -18z m27 5
c3 -5 1 -10 -4 -10 -6 0 -11 5 -11 10 0 6 2 10 4 10 3 0 8 -4 11 -10z m605
-36 c0 -7 -58 25 -65 36 -3 5 10 1 29 -11 20 -12 36 -23 36 -25z m1238 11 c-6
-14 -15 -25 -20 -25 -5 0 -2 10 7 23 8 13 12 27 8 32 -5 4 -3 5 4 1 9 -5 10
-13 1 -31z m-1528 19 c0 -8 -19 -13 -24 -6 -3 5 1 9 9 9 8 0 15 -2 15 -3z
m1440 -8 c0 -3 -4 -8 -10 -11 -5 -3 -10 -1 -10 4 0 6 5 11 10 11 6 0 10 -2 10
-4z m-1772 -31 c-3 -3 -9 2 -12 12 -6 14 -5 15 5 6 7 -7 10 -15 7 -18z m1821
22 c-2 -1 -15 -11 -29 -22 l-25 -20 19 23 c11 12 24 22 29 22 6 0 8 -1 6 -3z
m-1789 -17 c0 -5 -5 -10 -11 -10 -5 0 -7 5 -4 10 3 6 8 10 11 10 2 0 4 -4 4
-10z m825 -34 c0 -19 -3 -38 -7 -41 -3 -4 -5 14 -5 38 1 25 5 43 8 42 3 -2 5
-20 4 -39z m865 19 c-7 -8 -17 -15 -23 -15 -6 0 -2 7 9 15 25 19 30 19 14 0z
m-1225 -33 c-3 -3 -11 0 -18 7 -9 10 -8 11 6 5 10 -3 15 -9 12 -12z m235 8 c8
-5 11 -10 5 -10 -5 0 -17 5 -25 10 -8 5 -10 10 -5 10 6 0 17 -5 25 -10z m940
-5 c-7 -8 -17 -15 -23 -15 -6 0 -2 7 9 15 25 19 30 19 14 0z m-1655 -14 c3 -5
2 -12 -3 -15 -5 -3 -9 1 -9 9 0 17 3 19 12 6z m1615 -5 c0 -2 -7 -7 -16 -10
-8 -3 -12 -2 -9 4 6 10 25 14 25 6z m-1580 -16 c0 -5 -2 -10 -4 -10 -3 0 -8 5
-11 10 -3 6 -1 10 4 10 6 0 11 -4 11 -10z m1257 -22 c-3 -7 -5 -2 -5 12 0 14
2 19 5 13 2 -7 2 -19 0 -25z m343 7 c-7 -8 -20 -15 -29 -15 -11 0 -8 5 9 14
33 19 35 19 20 1z m-90 1 c0 -3 -4 -8 -10 -11 -5 -3 -10 -1 -10 4 0 6 5 11 10
11 6 0 10 -2 10 -4z m300 -6 c0 -5 -2 -10 -4 -10 -3 0 -8 5 -11 10 -3 6 -1 10
4 10 6 0 11 -4 11 -10z m-283 -25 c0 -8 -2 -13 -5 -11 -2 3 -23 -3 -45 -13
-23 -10 -63 -21 -90 -25 -26 -4 -45 -10 -43 -14 2 -4 -12 -8 -32 -8 -21 -1
-48 -2 -62 -3 -14 -1 -38 0 -55 1 -16 2 -35 0 -41 -4 -6 -5 -16 -3 -22 4 -8
10 3 13 51 14 53 2 104 7 177 18 63 10 130 29 146 41 11 8 19 15 20 15 0 0 1
-7 1 -15z m223 5 c0 -5 -5 -10 -11 -10 -5 0 -7 5 -4 10 3 6 8 10 11 10 2 0 4
-4 4 -10z m-323 -6 c-3 -3 -12 -4 -19 -1 -8 3 -5 6 6 6 11 1 17 -2 13 -5z
m373 -4 c0 -5 -5 -10 -11 -10 -5 0 -7 5 -4 10 3 6 8 10 11 10 2 0 4 -4 4 -10z
m-1786 -16 c3 -8 2 -12 -4 -9 -6 3 -10 10 -10 16 0 14 7 11 14 -7z m26 -59 c0
-5 -5 -3 -10 5 -5 8 -10 20 -10 25 0 6 5 3 10 -5 5 -8 10 -19 10 -25z m887 29
c-3 -3 -12 -4 -19 -1 -8 3 -5 6 6 6 11 1 17 -2 13 -5z m83 -10 c3 -3 -10 -4
-28 -1 -19 3 -37 8 -40 12 -4 3 9 3 28 0 19 -3 37 -8 40 -11z m-1282 -19 c-3
-3 -9 2 -12 12 -6 14 -5 15 5 6 7 -7 10 -15 7 -18z m1382 14 c0 -8 -76 -6 -85
2 -3 4 15 6 40 5 25 0 45 -4 45 -7z m-1096 -45 c3 -8 2 -12 -4 -9 -6 3 -10 10
-10 16 0 14 7 11 14 -7z m1684 -9 c-6 -14 -13 -23 -15 -21 -5 5 15 46 22 46 3
0 -1 -11 -7 -25z m-1938 -15 c6 -11 8 -20 6 -20 -3 0 -10 9 -16 20 -6 11 -8
20 -6 20 3 0 10 -9 16 -20z m307 -2 c2 -18 0 -20 -7 -8 -12 18 -13 30 -2 30 4
0 9 -10 9 -22z m1669 -36 c-18 -16 -18 -16 -6 6 6 13 14 21 18 18 3 -4 -2 -14
-12 -24z m-1646 -12 c6 -11 8 -20 6 -20 -3 0 -10 9 -16 20 -6 11 -8 20 -6 20
3 0 10 -9 16 -20z m-262 -75 c-3 -3 -9 2 -12 12 -6 14 -5 15 5 6 7 -7 10 -15
7 -18z m327 -25 c10 -11 16 -20 13 -20 -3 0 -13 9 -23 20 -10 11 -16 20 -13
20 3 0 13 -9 23 -20z m849 -79 c-2 -3 -35 -5 -72 -6 -37 -1 -87 -6 -112 -9
-54 -9 -50 0 6 12 39 9 187 11 178 3z m-1100 -17 c3 -8 2 -12 -4 -9 -6 3 -10
10 -10 16 0 14 7 11 14 -7z m1172 7 c-6 -10 74 -47 119 -55 15 -3 33 -10 38
-15 9 -9 -20 -4 -82 15 -15 4 -26 2 -33 -7 -8 -11 -9 -10 -4 3 4 13 -4 22 -30
34 -26 12 -32 19 -22 25 17 11 20 11 14 0z m-808 -18 c11 -10 29 -23 39 -30
17 -11 17 -11 -2 -7 -24 6 -85 54 -69 54 6 0 20 -8 32 -17z m622 -3 c0 -5 -12
-10 -27 -9 l-28 1 25 8 c14 4 26 8 28 9 1 1 2 -3 2 -9z m37 -6 c-3 -3 -12 -4
-19 -1 -8 3 -5 6 6 6 11 1 17 -2 13 -5z m116 -5 c59 -16 40 -18 -38 -4 -49 9
-59 13 -35 14 19 0 52 -4 73 -10z m-368 -19 c-3 -5 -12 -10 -18 -10 -7 0 -6 4
3 10 19 12 23 12 15 0z m-724 -17 c13 -16 12 -17 -3 -4 -10 7 -18 15 -18 17 0
8 8 3 21 -13z m309 -23 c21 -11 53 -22 71 -25 18 -3 36 -8 42 -12 5 -3 39 -5
75 -5 37 -1 58 -4 48 -7 -22 -8 -99 -6 -152 3 -53 10 -150 67 -137 80 4 4 9 2
11 -4 2 -6 21 -19 42 -30z m1021 26 c8 4 9 3 5 -4 -10 -17 -33 -15 -40 4 -5
14 -4 15 8 5 8 -7 21 -9 27 -5z m-926 -14 c-3 -3 -11 0 -18 7 -9 10 -8 11 6 5
10 -3 15 -9 12 -12z m255 8 c-8 -5 -19 -10 -25 -10 -5 0 -3 5 5 10 8 5 20 10
25 10 6 0 3 -5 -5 -10z m545 -10 c3 -6 -1 -7 -9 -4 -18 7 -21 14 -7 14 6 0 13
-4 16 -10z m-730 -18 c-3 -3 -11 0 -18 7 -9 10 -8 11 6 5 10 -3 15 -9 12 -12z
m781 -8 c18 -14 18 -14 -6 -3 -31 14 -36 19 -24 19 6 0 19 -7 30 -16z m289 -4
c4 -6 12 -7 18 -4 7 4 6 1 -2 -7 -10 -11 -15 -11 -18 -1 -3 6 -9 10 -14 6 -5
-3 -9 0 -9 5 0 14 17 14 25 1z m-189 -28 c-16 -2 -32 0 -37 5 -5 5 7 7 29 4
34 -5 35 -6 8 -9z m67 1 c-7 -2 -19 -2 -25 0 -7 3 -2 5 12 5 14 0 19 -2 13 -5z
m44 1 c-3 -3 -12 -4 -19 -1 -8 3 -5 6 6 6 11 1 17 -2 13 -5z m-2253 -22 c3 -5
-1 -9 -9 -9 -8 0 -12 4 -9 9 3 4 7 8 9 8 2 0 6 -4 9 -8z m913 -76 c8 -11 34
-39 56 -63 48 -53 43 -58 -7 -5 -56 58 -62 65 -81 97 -13 24 -14 26 -1 10 9
-11 24 -29 33 -39z m973 19 c7 -9 8 -15 2 -15 -5 0 -12 7 -16 15 -3 8 -4 15
-2 15 2 0 9 -7 16 -15z m-207 -2 c-7 -2 -19 -2 -25 0 -7 3 -2 5 12 5 14 0 19
-2 13 -5z m332 -13 c2 -4 -7 -5 -20 -2 -14 2 -25 8 -25 12 0 10 38 1 45 -10z
m-1937 -17 c1 -24 0 -25 -9 -10 -5 9 -7 22 -4 27 9 15 10 13 13 -17z m180 9
c3 -11 0 -12 -16 -3 -10 6 -23 7 -27 3 -5 -4 -5 -1 -1 6 10 16 38 12 44 -6z
m1664 -10 c-7 -2 -12 -12 -12 -23 0 -10 -4 -19 -10 -19 -13 0 -13 16 2 39 7
11 17 17 22 14 6 -4 5 -8 -2 -11z m-422 4 c0 -2 -9 -6 -20 -9 -11 -3 -18 -1
-14 4 5 9 34 13 34 5z m763 -11 c-3 -9 -8 -14 -10 -11 -3 3 -2 9 2 15 9 16 15
13 8 -4z m-2353 -13 c0 -9 -3 -12 -7 -9 -3 4 -12 -1 -20 -11 -13 -15 -13 -15
-4 4 6 12 8 23 6 26 -3 3 2 5 10 5 8 0 15 -7 15 -15z m1513 1 c-7 -2 -19 -2
-25 0 -7 3 -2 5 12 5 14 0 19 -2 13 -5z m283 -17 c3 -8 11 -13 18 -10 7 3 21
-4 31 -16 16 -18 16 -20 2 -20 -10 0 -16 5 -14 11 1 6 -4 14 -12 17 -9 3 -11
0 -6 -8 4 -7 -4 -4 -19 5 -26 18 -34 35 -16 35 6 0 13 -6 16 -14z m-356 0 c0
-2 -9 -6 -20 -9 -11 -3 -18 -1 -14 4 5 9 34 13 34 5z m869 -41 c-33 -49 -50
-62 -22 -17 18 29 44 62 49 62 2 0 -10 -20 -27 -45z m-109 25 c0 -5 -2 -10 -4
-10 -3 0 -8 5 -11 10 -3 6 -1 10 4 10 6 0 11 -4 11 -10z m-259 -23 c-10 -9
-11 -8 -5 6 3 10 9 15 12 12 3 -3 0 -11 -7 -18z m-1714 -12 c0 -8 -4 -12 -9
-9 -5 3 -6 10 -3 15 9 13 12 11 12 -6z m1078 5 c-27 -12 -43 -12 -25 0 8 5 22
9 30 9 10 0 8 -3 -5 -9z m628 -14 c7 3 3 -2 -7 -10 -27 -22 -39 -20 -24 4 7
11 14 16 16 10 2 -6 9 -8 15 -4z m-676 -2 c-3 -3 -12 -4 -19 -1 -8 3 -5 6 6 6
11 1 17 -2 13 -5z m-872 -14 c3 -5 1 -10 -4 -10 -6 0 -11 5 -11 10 0 6 2 10 4
10 3 0 8 -4 11 -10z m830 0 c-3 -5 -13 -10 -21 -10 -8 0 -14 -8 -14 -17 0 -15
-2 -16 -10 -3 -7 12 -3 18 18 27 34 15 35 15 27 3z m282 -16 c-3 -3 -12 -4
-19 -1 -8 3 -5 6 6 6 11 1 17 -2 13 -5z m65 -25 c-13 -5 -26 -18 -31 -31 l-8
-22 -5 22 c-4 15 -1 23 13 27 11 4 17 10 14 15 -3 4 5 6 17 2 l22 -5 -22 -8z
m-1182 -15 c0 -8 -5 -12 -10 -9 -6 4 -8 11 -5 16 9 14 15 11 15 -7z m1225 2
c-11 -8 -26 -11 -34 -8 -12 4 -11 7 5 13 34 13 50 11 29 -5z m631 -14 c-17
-16 -18 -16 -5 5 7 12 15 20 18 17 3 -2 -3 -12 -13 -22z m-558 13 c-11 -11
-60 -16 -53 -5 3 5 18 10 32 10 15 0 24 -2 21 -5z m57 -6 c3 -3 -1 -6 -7 -7
-7 0 -22 -2 -33 -5 -11 -2 -14 -2 -7 0 7 3 10 8 8 12 -6 8 30 8 39 0z m352
-19 c3 -10 2 -11 -4 -3 -4 6 -22 13 -38 16 -27 4 -27 5 4 3 21 0 36 -7 38 -16z
m-897 1 c0 -5 7 -16 15 -25 9 -9 11 -17 5 -21 -5 -3 -10 -1 -10 5 0 6 -5 8
-12 4 -7 -4 -8 -3 -4 5 4 6 2 18 -4 26 -9 11 -9 15 -1 15 6 0 11 -4 11 -9z
m375 -1 c3 -6 -1 -7 -9 -4 -18 7 -21 14 -7 14 6 0 13 -4 16 -10z m290 0 c3 -5
1 -10 -4 -10 -6 0 -11 5 -11 10 0 6 2 10 4 10 3 0 8 -4 11 -10z m343 -4 c-7
-8 -15 -12 -17 -11 -5 6 10 25 20 25 5 0 4 -6 -3 -14z m-223 -6 c3 -6 -1 -7
-9 -4 -18 7 -21 14 -7 14 6 0 13 -4 16 -10z m-395 -26 c0 -2 -9 0 -20 6 -11 6
-20 13 -20 16 0 2 9 0 20 -6 11 -6 20 -13 20 -16z m-1783 -16 c-3 -8 -6 -5 -6
6 -1 11 2 17 5 13 3 -3 4 -12 1 -19z m1818 13 c-3 -5 -1 -12 5 -16 5 -3 10 -1
10 6 0 7 3 10 6 6 3 -3 3 -11 -1 -17 -5 -8 -11 -8 -21 1 -17 14 -18 29 -3 29
5 0 8 -4 4 -9z m414 -28 c-13 -16 -25 -30 -26 -32 -1 -2 -1 6 0 17 0 11 4 19
8 16 4 -2 12 3 19 11 7 8 15 15 18 15 3 0 -5 -12 -19 -27z m142 4 c-10 -9 -11
-8 -5 6 3 10 9 15 12 12 3 -3 0 -11 -7 -18z m-916 3 c3 -5 1 -10 -4 -10 -6 0
-11 5 -11 10 0 6 2 10 4 10 3 0 8 -4 11 -10z m429 -19 c-2 -3 -12 3 -22 13
-16 17 -16 18 5 5 12 -7 20 -15 17 -18z m-383 2 c13 -16 12 -17 -3 -4 -10 7
-18 15 -18 17 0 8 8 3 21 -13z m566 -5 c-3 -8 -6 -5 -6 6 -1 11 2 17 5 13 3
-3 4 -12 1 -19z m75 3 c4 -3 -1 -7 -12 -7 -11 0 -20 4 -20 9 0 5 -6 4 -13 -2
-10 -8 -14 -7 -14 5 0 11 7 14 26 9 14 -4 29 -10 33 -14z m-2137 -1 c3 -5 -1
-10 -10 -10 -9 0 -13 5 -10 10 3 6 8 10 10 10 2 0 7 -4 10 -10z m2019 2 c3 -5
-1 -9 -9 -9 -8 0 -12 4 -9 9 3 4 7 8 9 8 2 0 6 -4 9 -8z m-2254 -18 c0 -8 -19
-13 -24 -6 -3 5 1 9 9 9 8 0 15 -2 15 -3z m2164 -14 c-21 -8 -37 -3 -29 10 3
4 15 6 27 2 21 -5 21 -6 2 -12z m-2214 1 c0 -5 -9 -7 -20 -4 -11 3 -20 7 -20
9 0 2 9 4 20 4 11 0 20 -4 20 -9z m83 -5 c4 -10 0 -12 -14 -9 -10 3 -16 9 -13
14 8 13 21 11 27 -5z m1692 5 c3 -5 2 -12 -3 -15 -5 -3 -9 1 -9 9 0 17 3 19
12 6z m835 6 c0 -2 -10 -12 -22 -23 l-23 -19 19 23 c18 21 26 27 26 19z m-650
-124 c0 -7 -115 83 -130 103 -8 10 18 -8 58 -40 39 -32 72 -60 72 -63z m-1839
90 c13 -16 12 -17 -3 -4 -10 7 -18 15 -18 17 0 8 8 3 21 -13z m897 -17 c-1
-14 -5 -23 -9 -20 -7 4 0 44 7 44 2 0 3 -11 2 -24z m-316 -17 c-4 -24 -7 -28
-13 -16 -5 8 -6 22 -3 31 11 27 21 17 16 -15z m1596 10 c-10 -7 -9 -9 3 -9 9
0 22 -7 29 -15 11 -13 9 -14 -16 -1 -29 16 -44 49 -17 39 12 -5 12 -7 1 -14z
m-1768 1 c0 -5 -5 -10 -11 -10 -5 0 -7 5 -4 10 3 6 8 10 11 10 2 0 4 -4 4 -10z
m2020 6 c0 -2 -8 -10 -17 -17 -16 -13 -17 -12 -4 4 13 16 21 21 21 13z m-1335
-26 c-3 -5 -21 -9 -38 -9 l-32 2 35 7 c19 4 36 8 38 9 2 0 0 -3 -3 -9z m128
-10 c5 -4 -11 -4 -35 0 -23 5 -46 6 -50 4 -4 -2 -9 0 -12 5 -7 11 85 3 97 -9z
m430 5 c4 -8 3 -16 -1 -19 -4 -3 -9 4 -9 15 -2 23 3 25 10 4z m621 5 c3 -3 -6
-7 -19 -8 -13 -1 -26 2 -29 6 -5 9 39 10 48 2z m-929 -20 c3 -6 -1 -7 -9 -4
-18 7 -21 14 -7 14 6 0 13 -4 16 -10z m1040 0 c-3 -5 -11 -10 -16 -10 -6 0 -7
5 -4 10 3 6 11 10 16 10 6 0 7 -4 4 -10z m-2490 -18 c-3 -3 -11 0 -18 7 -9 10
-8 11 6 5 10 -3 15 -9 12 -12z m685 -7 c0 -25 -18 -25 -22 -1 -4 17 -1 23 9
19 7 -3 13 -11 13 -18z m380 11 c0 -2 -8 -10 -17 -17 -16 -13 -17 -12 -4 4 13
16 21 21 21 13z m-553 -43 c-3 -10 -5 -4 -5 12 0 17 2 24 5 18 2 -7 2 -21 0
-30z m1021 -18 c42 -58 35 -58 -12 0 -21 25 -34 45 -29 45 4 -1 23 -21 41 -45z
m472 24 c22 -12 43 -25 46 -30 3 -5 -15 2 -39 15 -24 14 -47 22 -51 19 -3 -4
-6 -1 -6 5 0 16 3 15 50 -9z m-1028 -11 c-7 -7 -12 -8 -12 -2 0 14 12 26 19
19 2 -3 -1 -11 -7 -17z m-287 -47 c0 -22 -3 -42 -6 -45 -3 -3 -6 0 -6 7 0 6
-3 27 -7 45 -6 24 -4 32 6 32 9 0 13 -13 13 -39z m1715 29 c0 -5 -4 -10 -10
-10 -5 0 -10 5 -10 10 0 6 5 10 10 10 6 0 10 -4 10 -10z m-271 -26 c1 -1 -12
-2 -31 -1 -19 1 -35 7 -35 13 0 9 9 9 31 1 17 -5 33 -11 35 -13z m166 16 c-3
-5 -14 -10 -23 -9 -14 0 -13 2 3 9 27 11 27 11 20 0z m-135 -14 c0 -3 -4 -8
-10 -11 -5 -3 -10 -1 -10 4 0 6 5 11 10 11 6 0 10 -2 10 -4z m90 0 c0 -2 -11
-6 -25 -8 -13 -3 -22 -1 -19 3 5 9 44 13 44 5z m-1743 -26 c-1 -21 -10 -18
-13 5 -1 8 2 15 6 15 5 0 8 -9 7 -20z m1886 5 c4 -8 3 -16 -1 -19 -4 -3 -9 4
-9 15 -2 23 3 25 10 4z m52 -3 c-3 -3 -11 0 -18 7 -9 10 -8 11 6 5 10 -3 15
-9 12 -12z m-2097 -27 c-3 -3 -9 2 -12 12 -6 14 -5 15 5 6 7 -7 10 -15 7 -18z
m2124 -47 c53 -72 81 -113 61 -93 -12 13 -107 136 -117 153 -4 6 -5 12 -3 12
3 0 29 -33 59 -72z m13 62 c3 -6 -1 -7 -9 -4 -18 7 -21 14 -7 14 6 0 13 -4 16
-10z m-1528 -15 c0 -8 -4 -12 -9 -9 -5 3 -6 10 -3 15 9 13 12 11 12 -6z m849
-10 c17 -16 14 -18 -10 -9 -9 3 -16 10 -16 15 0 13 9 11 26 -6z m-1299 -47
c-2 -13 -4 -5 -4 17 -1 22 1 32 4 23 2 -10 2 -28 0 -40z m178 2 c0 -47 -11
-53 -17 -10 -3 22 6 50 17 50 0 0 0 -18 0 -40z m955 15 c14 -8 21 -14 15 -14
-5 0 -21 6 -35 14 -14 8 -20 14 -15 14 6 0 21 -6 35 -14z m280 -31 c0 -2 -9 0
-20 6 -11 6 -20 13 -20 16 0 2 9 0 20 -6 11 -6 20 -13 20 -16z m-965 7 c3 -5
2 -12 -3 -15 -5 -3 -9 1 -9 9 0 17 3 19 12 6z m742 3 c-3 -3 -12 -4 -19 -1 -8
3 -5 6 6 6 11 1 17 -2 13 -5z m700 -9 c0 -8 -4 -12 -9 -9 -4 3 -8 9 -8 15 0 5
4 9 8 9 5 0 9 -7 9 -15z m-2236 -12 c13 -16 12 -17 -3 -4 -10 7 -18 15 -18 17
0 8 8 3 21 -13z m1670 -18 c57 -19 106 -35 108 -35 2 0 2 -2 0 -5 -3 -2 -56
13 -119 35 -63 21 -110 39 -104 39 5 1 57 -15 115 -34z m134 7 c-3 -3 -11 0
-18 7 -9 10 -8 11 6 5 10 -3 15 -9 12 -12z m665 -46 c0 -12 -5 -7 -19 24 -11
24 -11 24 3 6 9 -11 16 -24 16 -30z m-580 8 c0 -2 -9 0 -20 6 -11 6 -20 13
-20 16 0 2 9 0 20 -6 11 -6 20 -13 20 -16z m-1109 -31 c-12 -20 -14 -14 -5 12
4 9 9 14 11 11 3 -2 0 -13 -6 -23z m1069 -9 c0 -2 -13 2 -30 11 -16 9 -30 18
-30 21 0 2 14 -2 30 -11 17 -9 30 -18 30 -21z m390 33 c0 -2 -10 -12 -21 -23
-22 -19 -22 -19 -8 4 12 19 29 30 29 19z m-250 -33 c47 -24 80 -33 122 -37 9
-1 14 -5 12 -9 -8 -13 -63 1 -128 33 -33 17 -63 32 -65 35 -10 10 11 2 59 -22z
m410 6 c0 -5 -2 -10 -4 -10 -3 0 -8 5 -11 10 -3 6 -1 10 4 10 6 0 11 -4 11
-10z m80 0 c0 -5 -2 -10 -4 -10 -3 0 -8 5 -11 10 -3 6 -1 10 4 10 6 0 11 -4
11 -10z m-580 -20 c0 -5 -2 -10 -4 -10 -3 0 -8 5 -11 10 -3 6 -1 10 4 10 6 0
11 -4 11 -10z m503 -25 c-3 -9 -8 -14 -10 -11 -3 3 -2 9 2 15 9 16 15 13 8 -4z
m-2353 -15 c0 -5 -5 -10 -11 -10 -5 0 -7 5 -4 10 3 6 8 10 11 10 2 0 4 -4 4
-10z m1945 -8 c-3 -3 -11 0 -18 7 -9 10 -8 11 6 5 10 -3 15 -9 12 -12z m495 8
c0 -5 -2 -10 -4 -10 -3 0 -8 5 -11 10 -3 6 -1 10 4 10 6 0 11 -4 11 -10z
m-400 -46 c0 -2 -9 0 -20 6 -11 6 -20 13 -20 16 0 2 9 0 20 -6 11 -6 20 -13
20 -16z m407 11 c0 -8 -4 -12 -9 -9 -5 3 -6 10 -3 15 9 13 12 11 12 -6z m-372
-25 c3 -6 -1 -7 -9 -4 -18 7 -21 14 -7 14 6 0 13 -4 16 -10z m40 -18 c-3 -3
-11 0 -18 7 -9 10 -8 11 6 5 10 -3 15 -9 12 -12z m-1484 -15 c-10 -9 -11 -8
-5 6 3 10 9 15 12 12 3 -3 0 -11 -7 -18z m1653 -26 c-10 -16 -21 -28 -26 -25
-5 3 2 18 14 33 29 36 35 32 12 -8z m-54 -4 c13 -5 13 -6 -1 -6 -8 -1 -24 6
-35 15 -19 15 -19 15 1 6 11 -5 27 -12 35 -15z m-1580 -15 c0 -15 -2 -15 -10
-2 -13 20 -13 33 0 25 6 -3 10 -14 10 -23z m1839 -6 c-3 -3 -11 5 -18 17 -13
21 -12 21 5 5 10 -10 16 -20 13 -22z m-1819 -49 c0 -5 -4 -5 -10 -2 -5 3 -10
14 -10 23 0 15 2 15 10 2 5 -8 10 -19 10 -23z m1834 17 c3 -8 2 -12 -4 -9 -6
3 -10 10 -10 16 0 14 7 11 14 -7z m-1814 -69 c0 -5 -5 -3 -10 5 -5 8 -10 20
-10 25 0 6 5 3 10 -5 5 -8 10 -19 10 -25z m1838 -25 c-2 -56 -13 -59 -14 -4 0
24 3 44 8 44 4 0 7 -18 6 -40z m-1824 -6 c3 -8 2 -12 -4 -9 -6 3 -10 10 -10
16 0 14 7 11 14 -7z m1826 -75 c0 -11 -4 -17 -10 -14 -5 3 -10 13 -10 21 0 8
5 14 10 14 6 0 10 -9 10 -21z m-2380 -19 c6 -11 7 -20 2 -20 -6 0 -12 9 -15
20 -3 11 -3 20 -1 20 2 0 8 -9 14 -20z m2385 -50 c3 -5 1 -10 -4 -10 -6 0 -11
5 -11 10 0 6 2 10 4 10 3 0 8 -4 11 -10z m-1725 -80 c6 -11 8 -20 6 -20 -3 0
-10 9 -16 20 -6 11 -8 20 -6 20 3 0 10 -9 16 -20z m1775 -37 c4 -15 2 -23 -6
-23 -7 0 -10 3 -6 6 3 3 1 18 -4 33 -6 15 -6 22 -1 16 5 -5 13 -20 17 -32z
m-1741 -29 c9 -24 2 -26 -12 -4 -7 11 -8 20 -3 20 5 0 12 -7 15 -16z m766
-110 c0 -3 -13 4 -30 16 -16 12 -35 18 -41 14 -8 -4 -9 -3 -5 4 4 7 2 12 -3
12 -6 0 -11 5 -11 10 0 6 20 -3 45 -20 25 -17 45 -33 45 -36z m-720 11 c0 -5
-5 -3 -10 5 -5 8 -10 20 -10 25 0 6 5 3 10 -5 5 -8 10 -19 10 -25z m23 -45 c3
-11 2 -18 -3 -15 -4 3 -10 14 -13 25 -3 11 -2 18 3 15 4 -3 10 -14 13 -25z
m767 -18 c3 -3 -3 -2 -12 1 -9 3 -18 1 -21 -6 -2 -6 -6 -2 -9 11 -5 19 -4 21
15 10 12 -6 24 -13 27 -16z m897 -5 c2 -12 5 -32 8 -44 3 -13 2 -23 -3 -23 -5
0 -9 6 -10 13 0 6 -3 29 -5 50 -3 21 -2 36 1 32 3 -3 7 -16 9 -28z m-948 -30
c-2 -3 -15 10 -28 27 l-24 31 28 -27 c16 -15 27 -29 24 -31z m95 17 c24 -24
19 -30 -6 -8 -13 10 -25 20 -27 21 -2 2 1 3 7 3 6 0 18 -7 26 -16z m-44 -44
c12 -23 12 -24 -3 -11 -10 7 -17 20 -17 29 0 18 3 16 20 -18z m110 18 c0 -6
-3 -8 -7 -5 -10 10 -34 -14 -26 -27 3 -6 0 -5 -8 2 -12 11 -11 15 5 28 24 17
36 18 36 2z m60 -10 c0 -10 3 -9 9 1 6 9 8 4 8 -17 -1 -17 -5 -28 -10 -25 -5
3 -6 8 -3 11 3 3 -1 14 -11 24 -9 11 -11 18 -5 18 7 0 12 -6 12 -12z m-855
-18 c3 -6 -1 -7 -9 -4 -18 7 -21 14 -7 14 6 0 13 -4 16 -10z m955 -15 c14 -19
14 -19 -2 -6 -10 7 -18 18 -18 24 0 6 1 8 3 6 1 -2 9 -13 17 -24z m-1110 2 c0
-2 -10 -12 -22 -23 l-23 -19 19 23 c18 21 26 27 26 19z m1760 -27 c0 -5 -2
-10 -4 -10 -3 0 -8 5 -11 10 -3 6 -1 10 4 10 6 0 11 -4 11 -10z m-620 -20 c6
-11 8 -20 6 -20 -3 0 -10 9 -16 20 -6 11 -8 20 -6 20 3 0 10 -9 16 -20z m-160
-15 c31 -6 38 -15 13 -15 -12 0 -29 8 -40 18 -10 9 -14 13 -7 9 7 -4 22 -10
34 -12z m70 -19 c14 -18 14 -19 -8 -7 -12 7 -20 17 -16 22 3 6 7 9 8 7 1 -2 8
-12 16 -22z m720 -6 c0 -5 -4 -10 -10 -10 -5 0 -10 5 -10 10 0 6 5 10 10 10 6
0 10 -4 10 -10z m-2400 -37 c0 -19 -13 -9 -16 12 -1 8 2 13 7 9 5 -3 9 -12 9
-21z m671 0 c-12 -20 -14 -14 -5 12 4 9 9 14 11 11 3 -2 0 -13 -6 -23z m714
17 c3 -6 -1 -7 -9 -4 -18 7 -21 14 -7 14 6 0 13 -4 16 -10z m65 -52 c15 -21
17 -28 6 -19 -16 13 -41 51 -33 51 2 0 14 -15 27 -32z m-965 12 c-3 -5 -12
-10 -18 -10 -7 0 -6 4 3 10 19 12 23 12 15 0z m635 -30 c12 -16 19 -30 16 -30
-2 0 -14 14 -26 30 -12 17 -19 30 -16 30 2 0 14 -13 26 -30z m1309 -14 c-3 -3
-11 5 -18 17 -13 21 -12 21 5 5 10 -10 16 -20 13 -22z m-2004 4 c-3 -5 -12
-10 -18 -10 -7 0 -6 4 3 10 19 12 23 12 15 0z m171 -35 c-36 -47 -43 -45 -8 4
15 21 29 37 31 35 2 -2 -8 -19 -23 -39z m-441 -8 c6 -5 -2 -5 -19 -1 -27 6
-29 5 -23 -16 3 -13 2 -19 -3 -14 -5 5 -11 21 -14 36 -4 26 -3 26 22 16 15 -7
32 -16 37 -21z m1335 29 c0 -3 -4 -8 -10 -11 -5 -3 -10 -1 -10 4 0 6 5 11 10
11 6 0 10 -2 10 -4z m45 -14 c-3 -3 -11 0 -18 7 -9 10 -8 11 6 5 10 -3 15 -9
12 -12z m945 -14 c0 -12 -10 -9 -26 6 -20 21 -17 28 6 14 11 -7 20 -16 20 -20z
m-1293 -60 c21 -48 5 -31 -21 25 -14 28 -18 41 -8 28 9 -14 22 -37 29 -53z
m-961 40 c3 -4 -1 -5 -10 -4 -8 1 -18 5 -22 8 -3 4 1 5 10 4 8 -1 18 -5 22 -8z
m64 6 c0 -8 -19 -13 -24 -6 -3 5 1 9 9 9 8 0 15 -2 15 -3z m1200 -9 c7 -9 8
-15 2 -15 -5 0 -12 7 -16 15 -3 8 -4 15 -2 15 2 0 9 -7 16 -15z m300 -30 c0
-1 -12 -2 -26 -2 -17 0 -22 2 -13 7 10 7 39 3 39 -5z m-274 -10 c9 -8 11 -15
6 -15 -5 0 -15 7 -22 15 -7 8 -9 15 -6 15 4 0 14 -7 22 -15z m-1342 -24 c-2
-3 -12 3 -22 13 -16 17 -16 18 5 5 12 -7 20 -15 17 -18z m1384 16 c-1 -2 3
-11 11 -20 7 -10 10 -17 5 -17 -15 0 -30 15 -28 28 3 23 4 25 10 20 3 -4 4 -8
2 -11z m137 3 c3 -5 1 -10 -4 -10 -6 0 -11 5 -11 10 0 6 2 10 4 10 3 0 8 -4
11 -10z m-1155 -4 c0 -3 -4 -8 -10 -11 -5 -3 -10 -1 -10 4 0 6 5 11 10 11 6 0
10 -2 10 -4z m1295 -26 c10 -11 16 -20 13 -20 -3 0 -13 9 -23 20 -10 11 -16
20 -13 20 3 0 13 -9 23 -20z m604 -22 c20 -40 20 -41 2 -18 -18 22 -34 60 -26
60 2 0 13 -19 24 -42z m-2215 23 c4 -5 -3 -7 -14 -4 -23 6 -26 13 -6 13 8 0
17 -4 20 -9z m990 -17 c3 -8 2 -12 -4 -9 -6 3 -10 10 -10 16 0 14 7 11 14 -7z
m-883 -12 c-7 -2 -18 1 -23 6 -8 8 -4 9 13 5 13 -4 18 -8 10 -11z m2226 3 c9
-24 -1 -27 -15 -5 -8 13 -8 20 -2 20 6 0 13 -7 17 -15z m-936 -12 c13 -16 12
-17 -3 -4 -10 7 -18 15 -18 17 0 8 8 3 21 -13z m-1161 3 c0 -16 -33 -33 -54
-29 -36 7 -33 21 3 15 16 -2 32 1 35 7 7 11 16 15 16 7z m770 -26 c0 -5 -2
-10 -4 -10 -3 0 -8 5 -11 10 -3 6 -1 10 4 10 6 0 11 -4 11 -10z m437 4 c-3 -3
-12 -4 -19 -1 -8 3 -5 6 6 6 11 1 17 -2 13 -5z m623 -24 c-8 -5 -19 -10 -25
-10 -5 0 -3 5 5 10 8 5 20 10 25 10 6 0 3 -5 -5 -10z m-60 -15 c0 -2 -15 -12
-32 -21 -18 -9 -36 -22 -40 -28 -6 -8 -8 -7 -8 1 0 7 17 21 38 32 42 23 42 23
42 16z m271 -12 c13 -16 12 -17 -3 -4 -10 7 -18 15 -18 17 0 8 8 3 21 -13z
m-637 -4 c-4 -7 -44 0 -44 7 0 2 11 3 24 2 14 -1 23 -5 20 -9z m-617 -31 c-3
-7 -5 -2 -5 12 0 14 2 19 5 13 2 -7 2 -19 0 -25z m1287 -4 c3 -9 6 -30 5 -47
l-1 -32 -8 30 c-4 17 -11 38 -15 48 -4 9 -3 17 3 17 5 0 13 -7 16 -16z m-418
-36 c-30 -40 -59 -105 -51 -117 2 -5 -2 -14 -10 -21 -10 -9 -15 -9 -15 -1 0 6
3 11 8 11 4 0 8 15 9 33 2 23 -3 37 -18 48 -21 15 -20 16 12 11 19 -2 31 -2
28 2 -6 6 52 74 60 69 1 -1 -9 -17 -23 -35z m-276 -43 c0 -2 -9 -3 -19 -2 -11
0 -18 5 -15 9 4 6 34 0 34 -7z m40 5 c0 -5 -5 -10 -11 -10 -5 0 -7 5 -4 10 3
6 8 10 11 10 2 0 4 -4 4 -10z m-600 -15 c0 -8 -2 -15 -4 -15 -2 0 -6 7 -10 15
-3 8 -1 15 4 15 6 0 10 -7 10 -15z m340 1 c-7 -7 -13 -7 -20 0 -6 6 -3 10 10
10 13 0 16 -4 10 -10z m148 7 c-10 -2 -26 -2 -35 0 -10 3 -2 5 17 5 19 0 27
-2 18 -5z m836 -8 c3 -8 1 -15 -4 -15 -6 0 -10 7 -10 15 0 8 2 15 4 15 2 0 6
-7 10 -15z m-1126 0 c-8 -8 -77 -9 -85 -2 -3 4 15 7 42 7 27 0 46 -2 43 -5z
m189 -1 c-3 -3 -12 -4 -19 -1 -8 3 -5 6 6 6 11 1 17 -2 13 -5z m837 -58 c-3
-15 -8 -25 -11 -23 -2 3 -1 17 3 31 3 15 8 25 11 23 2 -3 1 -17 -3 -31z m-14
-46 c0 -5 -5 -10 -11 -10 -5 0 -7 5 -4 10 3 6 8 10 11 10 2 0 4 -4 4 -10z
m-415 -41 c11 -17 -1 -21 -15 -4 -8 9 -8 15 -2 15 6 0 14 -5 17 -11z m-5 -33
c0 -3 -4 -8 -10 -11 -5 -3 -10 -1 -10 4 0 6 5 11 10 11 6 0 10 -2 10 -4z m355
-6 c-3 -5 -12 -10 -18 -10 -7 0 -6 4 3 10 19 12 23 12 15 0z m-390 -9 c-3 -2
-16 -6 -28 -8 -15 -2 -18 0 -9 5 14 9 45 12 37 3z m-754 -27 c21 0 39 -3 39
-8 0 -7 -70 -4 -109 6 -8 1 -20 -8 -28 -22 -12 -25 -13 -25 -13 -2 0 12 5 22
10 22 6 0 9 3 9 8 -3 18 3 20 27 7 14 -7 43 -12 65 -11z m699 22 c0 -3 -4 -8
-10 -11 -5 -3 -10 -1 -10 4 0 6 5 11 10 11 6 0 10 -2 10 -4z m680 -6 c0 -5 -2
-10 -4 -10 -3 0 -8 5 -11 10 -3 6 -1 10 4 10 6 0 11 -4 11 -10z m-495 -28 c-3
-3 -11 0 -18 7 -9 10 -8 11 6 5 10 -3 15 -9 12 -12z m-758 0 c7 -4 -8 -7 -32
-7 -23 0 -41 3 -38 8 6 9 54 9 70 -1z m67 0 c2 -4 -7 -8 -22 -9 -24 -2 -24 -1
-7 7 11 5 21 9 22 9 1 1 4 -3 7 -7z m66 4 c0 -2 -7 -7 -16 -10 -8 -3 -12 -2
-9 4 6 10 25 14 25 6z m795 -6 c-3 -5 -12 -10 -18 -10 -7 0 -6 4 3 10 19 12
23 12 15 0z m357 -47 c6 -7 6 -13 1 -13 -11 0 -33 44 -32 63 0 7 5 1 10 -12 5
-14 15 -31 21 -38z m-468 38 c3 -4 -4 -7 -14 -6 -27 2 -33 10 -10 12 11 1 22
-2 24 -6z m351 -61 c3 -5 1 -10 -4 -10 -6 0 -11 5 -11 10 0 6 2 10 4 10 3 0 8
-4 11 -10z m-3245 -21 c0 -4 -162 -7 -361 -8 -198 -1 -358 2 -356 7 6 9 717
10 717 1z m50 3 c0 -4 -9 -8 -20 -9 -11 -1 -20 2 -20 5 0 4 9 8 20 9 11 1 20
-2 20 -5z m100 -2 c0 -3 -20 -6 -45 -7 -25 -1 -45 2 -45 5 0 4 20 8 45 8 25 0
45 -3 45 -6z m60 -2 c0 -4 -7 -8 -15 -8 -8 0 -15 4 -15 8 0 5 7 9 15 9 8 0 15
-4 15 -9z m25 2 c3 -5 1 -10 -4 -10 -6 0 -11 5 -11 10 0 6 2 10 4 10 3 0 8 -4
11 -10z m115 0 c0 -4 -22 -6 -50 -6 -27 0 -50 3 -50 6 0 4 23 6 50 6 28 0 50
-3 50 -6z m45 0 c3 -5 1 -10 -4 -10 -6 0 -11 5 -11 10 0 6 2 10 4 10 3 0 8 -4
11 -10z m85 -1 c0 -4 -16 -6 -35 -6 -19 1 -35 4 -35 8 0 3 16 5 35 5 19 -1 35
-4 35 -7z m540 2 c0 -4 -119 -8 -265 -7 -146 0 -265 3 -265 6 0 3 119 6 265 7
146 1 265 -1 265 -6z m90 1 c0 -4 -18 -8 -40 -9 -22 0 -40 3 -40 8 0 5 18 9
40 9 22 0 40 -4 40 -8z m150 -3 c0 -3 -31 -6 -70 -6 -38 1 -70 4 -70 8 0 4 32
6 70 6 39 -1 70 -4 70 -8z m40 1 c0 -5 -8 -10 -17 -10 -15 0 -16 2 -3 10 19
12 20 12 20 0z m315 0 c3 -5 1 -10 -4 -10 -6 0 -11 5 -11 10 0 6 2 10 4 10 3
0 8 -4 11 -10z m59 -1 c-6 -10 -44 -7 -44 3 0 4 11 7 24 6 14 -1 23 -6 20 -9z
m100 2 c-8 -8 -34 -10 -38 -2 -3 4 6 7 19 7 14 0 22 -2 19 -5z m2156 -8 c-47
-7 -100 -8 -100 -1 0 8 90 15 105 8 6 -2 3 -6 -5 -7z m120 13 c0 -2 -7 -7 -16
-10 -8 -3 -12 -2 -9 4 6 10 25 14 25 6z m25 -5 c3 -5 2 -12 -3 -15 -5 -3 -9 1
-9 9 0 17 3 19 12 6z m52 3 c-3 -3 -12 -4 -19 -1 -8 3 -5 6 6 6 11 1 17 -2 13
-5z m53 2 c0 -2 -9 -6 -20 -9 -11 -3 -20 -1 -20 4 0 5 9 9 20 9 11 0 20 -2 20
-4z m30 -6 c0 -5 -4 -10 -10 -10 -5 0 -10 5 -10 10 0 6 5 10 10 10 6 0 10 -4
10 -10z m54 1 c-9 -9 -34 -9 -40 0 -3 5 6 8 20 7 14 -1 23 -4 20 -7z m76 5 c0
-2 -7 -6 -15 -10 -8 -3 -15 -1 -15 4 0 6 7 10 15 10 8 0 15 -2 15 -4z m119 0
c-8 -7 -79 -14 -83 -7 -2 3 17 7 42 9 25 1 44 1 41 -2z m166 -6 c-4 -7 -75 -3
-82 4 -3 3 15 4 40 3 25 0 44 -4 42 -7z m111 -2 c-10 -6 -22 -6 -26 -2 -5 5 3
10 18 11 22 1 24 0 8 -9z m74 8 c0 -3 -4 -8 -10 -11 -5 -3 -10 -1 -10 4 0 6 5
11 10 11 6 0 10 -2 10 -4z m160 -2 c0 -8 -19 -13 -24 -6 -3 5 1 9 9 9 8 0 15
-2 15 -3z m80 0 c0 -8 -19 -13 -24 -6 -3 5 1 9 9 9 8 0 15 -2 15 -3z m120 -6
c0 -4 -4 -8 -9 -8 -6 0 -12 4 -15 8 -3 5 1 9 9 9 8 0 15 -4 15 -9z m144 4 c3
-5 -1 -9 -9 -9 -8 0 -12 4 -9 9 3 4 7 8 9 8 2 0 6 -4 9 -8z m30 -8 c3 -8 2
-12 -4 -9 -6 3 -10 10 -10 16 0 14 7 11 14 -7z m86 10 c0 -8 -19 -13 -24 -6
-3 5 1 9 9 9 8 0 15 -2 15 -3z m75 -4 c3 -5 1 -10 -4 -10 -6 0 -11 5 -11 10 0
6 2 10 4 10 3 0 8 -4 11 -10z m45 0 c0 -5 -5 -10 -11 -10 -5 0 -7 5 -4 10 3 6
8 10 11 10 2 0 4 -4 4 -10z m70 -5 c0 -1 -12 -2 -26 -2 -17 0 -22 2 -13 7 10
7 39 3 39 -5z m-2156 -14 c3 -4 -4 -7 -14 -8 -10 -1 -21 4 -23 12 -4 9 1 11
14 8 11 -3 21 -8 23 -12z m526 9 c0 -5 -5 -10 -11 -10 -5 0 -7 5 -4 10 3 6 8
10 11 10 2 0 4 -4 4 -10z m1670 4 c0 -8 -19 -13 -24 -6 -3 5 1 9 9 9 8 0 15
-2 15 -3z m137 0 c-3 -3 -12 -4 -19 -1 -8 3 -5 6 6 6 11 1 17 -2 13 -5z
m-4381 -35 c3 -6 -5 -3 -20 6 -14 10 -26 19 -26 22 0 7 39 -17 46 -28z m-2196
11 c-8 -5 -19 -10 -25 -10 -5 0 -3 5 5 10 8 5 20 10 25 10 6 0 3 -5 -5 -10z
m4545 0 c-3 -5 -12 -10 -18 -10 -7 0 -6 4 3 10 19 12 23 12 15 0z m2200 -10
c3 -6 -1 -7 -9 -4 -18 7 -21 14 -7 14 6 0 13 -4 16 -10z m-6790 -8 c-37 -31
-88 -63 -75 -47 8 10 29 26 45 37 31 19 46 24 30 10z m2280 -2 c-3 -5 -12 -10
-18 -10 -7 0 -6 4 3 10 19 12 23 12 15 0z m2245 -11 c-19 -12 -43 -28 -52 -37
-10 -8 -18 -10 -18 -4 0 11 77 62 95 62 6 0 -6 -10 -25 -21z m2336 -23 c10 -8
16 -18 11 -22 -4 -4 -7 -2 -7 4 0 7 -6 12 -14 12 -8 0 -18 5 -21 10 -9 15 8
12 31 -4z m-2795 -29 c-10 -9 -11 -8 -5 6 3 10 9 15 12 12 3 -3 0 -11 -7 -18z
m16 -34 c1 -22 -1 -24 -8 -10 -6 9 -7 22 -4 27 9 14 10 13 12 -17z m333 2
c-13 -14 -26 -23 -28 -20 -4 4 38 44 47 45 3 0 -6 -11 -19 -25z m2500 10 c19
-22 8 -25 -12 -3 -10 10 -14 18 -9 18 5 0 14 -7 21 -15z m-7056 -42 c-32 -47
-40 -55 -24 -23 12 24 40 60 46 60 2 0 -8 -17 -22 -37z m4270 -49 c21 -25 30
-40 19 -34 -16 10 -69 80 -60 80 1 0 20 -21 41 -46z m2837 19 c13 -16 12 -17
-3 -4 -10 7 -18 15 -18 17 0 8 8 3 21 -13z m-7144 -45 c-3 -8 -6 -5 -6 6 -1
11 2 17 5 13 3 -3 4 -12 1 -19z m4477 -42 c-16 -19 -36 -37 -44 -41 -8 -3 -3
6 10 21 14 15 32 35 40 44 28 31 23 11 -6 -24z m-95 -21 c18 -19 26 -33 18
-30 -12 5 -63 65 -54 65 1 0 17 -16 36 -35z m-1403 2 c4 -4 -17 -7 -47 -7 -30
-1 -105 -2 -166 -3 -62 -1 -113 1 -113 4 0 3 19 6 42 7 23 1 42 3 44 4 6 7
233 2 240 -5z m137 0 c-5 -9 -123 -7 -123 2 0 4 29 6 64 6 35 0 62 -4 59 -8z
m71 2 c3 -3 -8 -6 -24 -7 -17 -1 -30 1 -30 6 0 8 46 9 54 1z m61 1 c3 -5 1
-10 -4 -10 -6 0 -11 5 -11 10 0 6 2 10 4 10 3 0 8 -4 11 -10z m59 2 c2 -4 -7
-8 -22 -9 -24 -2 -24 -1 -7 7 11 5 21 9 22 9 1 1 4 -3 7 -7z m80 -3 c3 -3 -4
-5 -14 -6 -11 -1 -20 2 -20 7 0 8 25 8 34 -1z m80 0 c3 -3 -4 -5 -14 -6 -11
-1 -20 2 -20 7 0 8 25 8 34 -1z m193 -3 c4 -3 -24 -6 -60 -6 -37 0 -67 3 -67
8 0 8 118 7 127 -2z m340 -61 c35 -37 63 -70 63 -74 0 -3 -29 24 -64 62 l-64
67 -131 1 c-72 1 -131 4 -131 8 0 4 59 6 132 5 l132 -2 63 -67z m1373 63 c0
-4 -46 -8 -102 -8 -57 0 -166 -2 -242 -5 -132 -5 -170 1 -90 14 58 9 434 9
434 -1z m240 2 c0 -3 -52 -6 -115 -6 -63 0 -115 2 -115 6 0 3 52 6 115 5 63 0
115 -2 115 -5z m104 0 c-7 -7 -94 -7 -89 0 2 3 24 6 49 6 25 0 43 -3 40 -6z
m56 5 c0 -7 -30 -13 -34 -7 -3 4 4 9 15 9 10 1 19 0 19 -2z m50 1 c0 -2 -9 -6
-20 -9 -11 -3 -18 -1 -14 4 5 9 34 13 34 5z m44 -4 c2 -4 -4 -8 -14 -8 -10 0
-16 4 -14 8 3 4 9 8 14 8 5 0 11 -4 14 -8z m46 -2 c0 -5 -2 -10 -4 -10 -3 0
-8 5 -11 10 -3 6 -1 10 4 10 6 0 11 -4 11 -10z m125 0 c3 -6 -1 -7 -9 -4 -18
7 -21 14 -7 14 6 0 13 -4 16 -10z m45 4 c0 -8 -19 -13 -24 -6 -3 5 1 9 9 9 8
0 15 -2 15 -3z m66 -7 c4 -3 -6 -5 -20 -3 -14 1 -29 5 -32 9 -3 3 6 4 20 3 15
-2 29 -6 32 -9z m169 3 c-3 -5 -14 -10 -23 -9 -14 0 -13 2 3 9 27 11 27 11 20
0z m-5817 -5 c-9 -9 -118 -12 -118 -3 0 4 28 8 62 8 34 0 59 -2 56 -5z m280
-1 c-9 -8 -268 -10 -268 -1 0 4 61 7 137 7 75 0 134 -2 131 -6z m65 -1 c-7 -2
-19 -2 -25 0 -7 3 -2 5 12 5 14 0 19 -2 13 -5z m50 0 c-7 -2 -19 -2 -25 0 -7
3 -2 5 12 5 14 0 19 -2 13 -5z m64 1 c-3 -3 -12 -4 -19 -1 -8 3 -5 6 6 6 11 1
17 -2 13 -5z m43 0 c0 -8 -19 -13 -24 -6 -3 5 1 9 9 9 8 0 15 -2 15 -3z m37 0
c-3 -3 -12 -4 -19 -1 -8 3 -5 6 6 6 11 1 17 -2 13 -5z m47 -6 c-3 -4 -11 -5
-19 -1 -21 7 -19 12 4 10 11 0 18 -5 15 -9z m106 2 c0 -5 -2 -10 -4 -10 -3 0
-8 5 -11 10 -3 6 -1 10 4 10 6 0 11 -4 11 -10z m60 5 c0 -7 -30 -13 -34 -7 -3
4 4 9 15 9 10 1 19 0 19 -2z m120 -1 c0 -8 -19 -13 -24 -6 -3 5 1 9 9 9 8 0
15 -2 15 -3z m65 -4 c3 -6 -1 -7 -9 -4 -18 7 -21 14 -7 14 6 0 13 -4 16 -10z
m101 -2 c-9 -5 -23 -5 -32 0 -12 6 -7 9 16 9 23 0 28 -3 16 -9z m114 0 c0 -11
-12 -10 -30 2 -12 7 -10 9 8 7 12 0 22 -5 22 -9z m90 8 c0 -8 -48 -12 -66 -6
-13 5 -5 8 24 8 23 0 42 -1 42 -2z m30 0 c0 -3 -4 -8 -10 -11 -5 -3 -10 -1
-10 4 0 6 5 11 10 11 6 0 10 -2 10 -4z m236 -3 c-8 -8 -226 -10 -226 -2 0 4
52 7 116 7 64 0 113 -2 110 -5z m44 3 c0 -11 -19 -15 -25 -6 -3 5 1 10 9 10 9
0 16 -2 16 -4z m54 -5 c-9 -9 -34 -9 -40 0 -3 5 6 8 20 7 14 -1 23 -4 20 -7z
m4103 3 c-3 -3 -12 -4 -19 -1 -8 3 -5 6 6 6 11 1 17 -2 13 -5z m56 -1 c-7 -2
-21 -2 -30 0 -10 3 -4 5 12 5 17 0 24 -2 18 -5z m200 0 c-23 -2 -64 -2 -90 0
-26 2 -7 3 42 3 50 0 71 -1 48 -3z m137 -1 c0 -9 -80 -6 -88 3 -3 3 16 5 41 5
26 0 47 -4 47 -8z m50 0 c0 -4 -9 -8 -20 -8 -11 0 -20 4 -20 8 0 4 9 8 20 8
11 0 20 -4 20 -8z m137 -6 c2 -2 -23 -4 -57 -4 -33 1 -62 4 -65 8 -4 7 114 4
122 -4z m-4503 -22 c30 -29 19 -33 -14 -4 -13 11 -18 20 -12 20 6 0 18 -7 26
-16z m4549 -24 c7 -29 1 -24 -17 11 -12 23 -12 28 -2 20 8 -7 16 -21 19 -31z
m-6518 10 c-9 -14 -13 -153 -14 -442 -1 -137 -4 -248 -9 -248 -8 0 -7 582 1
642 5 37 14 58 23 58 3 0 2 -5 -1 -10z m2275 -30 c0 -22 -4 -40 -10 -40 -5 0
-8 10 -6 23 3 12 5 30 5 40 2 35 11 16 11 -23z m2273 25 c-3 -9 -8 -14 -10
-11 -3 3 -2 9 2 15 9 16 15 13 8 -4z m-2551 -65 c-6 -41 -12 -38 -12 6 0 19 4
33 8 30 5 -3 7 -19 4 -36z m270 -46 c-9 -16 -10 -14 -9 8 1 15 6 23 11 18 4
-4 4 -16 -2 -26z m2278 16 c0 -5 -2 -10 -4 -10 -3 0 -8 5 -11 10 -3 6 -1 10 4
10 6 0 11 -4 11 -10z m-5 -169 c0 -82 -2 -148 -6 -146 -4 3 -4 282 0 293 5 13
7 -20 6 -147z m-699 97 l19 -23 -25 20 c-14 11 -27 21 -29 22 -2 2 0 3 6 3 5
0 18 -10 29 -22z m209 -216 c-3 -3 -11 0 -18 7 -9 10 -8 11 6 5 10 -3 15 -9
12 -12z m60 -52 c11 -17 -5 -11 -28 11 l-22 21 22 -11 c12 -6 25 -16 28 -21z
m430 -29 c3 -5 2 -12 -3 -15 -5 -3 -9 1 -9 9 0 17 3 19 12 6z m-8 -63 c-3 -7
-5 -2 -5 12 0 14 2 19 5 13 2 -7 2 -19 0 -25z m-326 -15 c13 -16 12 -17 -3 -4
-17 13 -22 21 -14 21 2 0 10 -8 17 -17z m44 -33 c3 -6 -1 -7 -9 -4 -18 7 -21
14 -7 14 6 0 13 -4 16 -10z m2612 -42 c-3 -7 -5 -2 -5 12 0 14 2 19 5 13 2 -7
2 -19 0 -25z m-367 -3 c-7 -8 -18 -15 -24 -15 -6 0 -2 7 8 15 25 19 32 19 16
0z m-2233 -37 c-3 -7 -5 -2 -5 12 0 14 2 19 5 13 2 -7 2 -19 0 -25z m1973 17
c0 -2 -9 -3 -19 -2 -11 0 -18 5 -15 9 4 6 34 0 34 -7z m34 7 c3 -5 -1 -9 -9
-9 -8 0 -12 4 -9 9 3 4 7 8 9 8 2 0 6 -4 9 -8z m116 -3 c0 -4 -10 -9 -22 -11
-32 -4 -82 3 -70 11 14 8 92 8 92 0z m30 1 c0 -5 -2 -10 -4 -10 -3 0 -8 5 -11
10 -3 6 -1 10 4 10 6 0 11 -4 11 -10z m-4423 -52 c-3 -7 -5 -2 -5 12 0 14 2
19 5 13 2 -7 2 -19 0 -25z m2270 -25 c-3 -10 -5 -4 -5 12 0 17 2 24 5 18 2 -7
2 -21 0 -30z m-4277 -3 c0 -11 -2 -20 -4 -20 -2 0 -6 9 -9 20 -3 11 -1 20 4
20 5 0 9 -9 9 -20z m2007 -9 c0 -11 -5 -18 -9 -15 -4 3 -5 11 -1 19 7 21 12
19 10 -4z m-867 5 c0 -2 -8 -10 -17 -17 -16 -13 -17 -12 -4 4 13 16 21 21 21
13z m5714 -33 c10 -25 3 -23 -17 3 -13 18 -14 22 -3 18 8 -3 17 -13 20 -21z
m-2577 -5 c-3 -8 -6 -5 -6 6 -1 11 2 17 5 13 3 -3 4 -12 1 -19z m-4279 -209
c0 -121 -2 -218 -4 -216 -8 7 -10 437 -2 437 3 0 6 -99 6 -221z m1107 201 c-3
-5 -12 -10 -18 -10 -7 0 -6 4 3 10 19 12 23 12 15 0z m3172 -32 c-3 -8 -6 -5
-6 6 -1 11 2 17 5 13 3 -3 4 -12 1 -19z m1553 -23 c0 -2 -9 -3 -19 -2 -11 0
-18 5 -15 9 4 6 34 0 34 -7z m-1553 -17 c-3 -8 -6 -5 -6 6 -1 11 2 17 5 13 3
-3 4 -12 1 -19z m1363 15 c0 -4 -36 -8 -80 -9 -44 0 -80 3 -80 6 0 3 36 7 80
8 44 2 80 -1 80 -5z m37 1 c-3 -3 -12 -4 -19 -1 -8 3 -5 6 6 6 11 1 17 -2 13
-5z m53 2 c0 -2 -9 -6 -20 -9 -11 -3 -18 -1 -14 4 5 9 34 13 34 5z m157 -2
c-3 -3 -12 -4 -19 -1 -8 3 -5 6 6 6 11 1 17 -2 13 -5z m236 -1 c-7 -2 -21 -2
-30 0 -10 3 -4 5 12 5 17 0 24 -2 18 -5z m392 -23 c10 -11 14 -20 9 -20 -5 0
-15 9 -22 20 -7 11 -11 20 -9 20 2 0 12 -9 22 -20z m-5540 -50 c-27 -27 -52
-50 -56 -50 -8 0 93 99 101 100 2 0 -18 -22 -45 -50z m3302 18 c-3 -8 -6 -5
-6 6 -1 11 2 17 5 13 3 -3 4 -12 1 -19z m1154 -25 c-4 -34 -5 -36 -11 -13 -4
14 -2 31 3 38 13 17 14 16 8 -25z m-1154 -30 c-3 -10 -5 -4 -5 12 0 17 2 24 5
18 2 -7 2 -21 0 -30z m-3590 5 c-3 -8 -6 -5 -6 6 -1 11 2 17 5 13 3 -3 4 -12
1 -19z m5859 -48 c1 -16 -2 -30 -6 -30 -5 0 -6 44 -1 58 4 8 6 -2 7 -28z
m-2269 -12 c-3 -8 -6 -5 -6 6 -1 11 2 17 5 13 3 -3 4 -12 1 -19z m-3582 -13
c0 -14 -3 -25 -7 -25 -10 0 -10 34 -1 43 3 4 7 7 7 7 1 0 1 -11 1 -25z m5850
-35 c-1 -11 -4 -22 -7 -25 -4 -5 -4 34 1 43 4 8 7 -1 6 -18z m-5851 -54 c1
-25 -1 -46 -6 -46 -4 0 -8 23 -8 52 0 62 11 58 14 -6z m5853 -31 c0 -8 -4 -12
-9 -9 -5 3 -6 10 -3 15 9 13 12 11 12 -6z m-5852 -105 c0 -44 -3 -80 -7 -80
-5 0 -8 36 -8 80 0 44 3 80 8 80 4 0 7 -36 7 -80z m1582 58 c-3 -8 -6 -5 -6 6
-1 11 2 17 5 13 3 -3 4 -12 1 -19z m4264 -41 c-10 -9 -11 -8 -5 6 3 10 9 15
12 12 3 -3 0 -11 -7 -18z m-5757 -33 c3 -8 2 -12 -4 -9 -6 3 -10 10 -10 16 0
14 7 11 14 -7z m-779 -14 c3 -5 2 -10 -4 -10 -5 0 -13 5 -16 10 -3 6 -2 10 4
10 5 0 13 -4 16 -10z m2272 -22 c-3 -7 -5 -2 -5 12 0 14 2 19 5 13 2 -7 2 -19
0 -25z m-1427 -33 c19 -19 32 -35 29 -35 -3 0 -20 16 -39 35 -19 19 -32 35
-29 35 3 0 20 -16 39 -35z m-850 -198 c0 -111 0 -321 0 -466 0 -145 -2 -266
-5 -269 -3 -3 -5 71 -6 164 0 93 -1 307 -2 476 -1 168 1 304 5 302 4 -3 8 -96
8 -207z m2277 -85 c-1 -53 -3 -7 -3 103 0 110 2 154 3 97 2 -57 2 -147 0 -200z
m4269 254 c-1 -24 -3 -47 -6 -50 -5 -4 -5 80 -1 92 5 12 8 -6 7 -42z m-5859 2
c-3 -8 -6 -5 -6 6 -1 11 2 17 5 13 3 -3 4 -12 1 -19z m6190 -20 c-3 -8 -6 -5
-6 6 -1 11 2 17 5 13 3 -3 4 -12 1 -19z m-6190 -20 c-3 -8 -6 -5 -6 6 -1 11 2
17 5 13 3 -3 4 -12 1 -19z m6183 -146 c-8 -14 -9 -11 -6 13 2 17 6 55 7 85 l3
55 3 -68 c2 -37 -1 -75 -7 -85z m-6183 106 c-3 -8 -6 -5 -6 6 -1 11 2 17 5 13
3 -3 4 -12 1 -19z m0 -75 c-3 -10 -5 -4 -5 12 0 17 2 24 5 18 2 -7 2 -21 0
-30z m5837 14 c-3 -8 -12 -18 -20 -21 -11 -4 -10 0 3 18 20 26 27 28 17 3z
m-1024 -26 l35 -11 -34 5 c-36 5 -61 21 -61 38 0 6 6 3 13 -5 6 -9 28 -22 47
-27z m-4425 -31 c3 -6 -1 -7 -9 -4 -18 7 -21 14 -7 14 6 0 13 -4 16 -10z
m-385 -25 c0 -8 -2 -15 -4 -15 -2 0 -6 7 -10 15 -3 8 -1 15 4 15 6 0 10 -7 10
-15z m6156 -23 c-8 -16 -12 -33 -8 -37 4 -5 2 -5 -5 -1 -9 5 -8 15 4 41 9 19
18 33 21 31 2 -2 -3 -17 -12 -34z m-6159 -21 c0 -11 -5 -18 -9 -15 -4 3 -5 11
-1 19 7 21 12 19 10 -4z m0 -78 c-3 -10 -5 -2 -5 17 0 19 2 27 5 18 2 -10 2
-26 0 -35z m6168 27 c3 -5 1 -10 -4 -10 -6 0 -11 5 -11 10 0 6 2 10 4 10 3 0
8 -4 11 -10z m23 -45 c-3 -3 -9 2 -12 12 -6 14 -5 15 5 6 7 -7 10 -15 7 -18z
m-380 -9 c16 -9 21 -15 12 -16 -9 0 -21 5 -26 10 -6 6 -38 11 -71 13 -34 1
-56 5 -50 9 17 10 105 0 135 -16z m-4218 -96 c0 -44 -3 -80 -7 -80 -5 0 -7 35
-6 77 2 91 2 83 8 83 3 0 5 -36 5 -80z m1997 8 c-3 -7 -5 -2 -5 12 0 14 2 19
5 13 2 -7 2 -19 0 -25z m0 -60 c-3 -7 -5 -2 -5 12 0 14 2 19 5 13 2 -7 2 -19
0 -25z m488 23 c-3 -2 -16 -6 -28 -8 -15 -2 -18 0 -9 5 14 9 45 12 37 3z m35
5 c0 -3 -4 -8 -10 -11 -5 -3 -10 -1 -10 4 0 6 5 11 10 11 6 0 10 -2 10 -4z
m44 -4 c3 -5 -1 -9 -9 -9 -8 0 -12 4 -9 9 3 4 7 8 9 8 2 0 6 -4 9 -8z m46 2
c0 -8 -19 -13 -24 -6 -3 5 1 9 9 9 8 0 15 -2 15 -3z m-180 -8 c0 -2 -9 -6 -20
-9 -11 -3 -18 -1 -14 4 5 9 34 13 34 5z m-2750 -13 c0 -1 -9 -7 -19 -12 -14
-8 -20 -7 -25 4 -4 11 1 14 19 13 14 -1 25 -3 25 -5z m3025 -3 c-3 -5 -1 -10
6 -10 7 0 10 -2 7 -5 -3 -3 -13 -2 -22 1 -14 5 -15 9 -4 15 17 11 20 11 13 -1z
m-2115 -20 c-28 -8 -35 -6 -26 8 3 6 16 7 29 4 22 -6 22 -6 -3 -12z m1748 6
c-7 -8 -15 -12 -17 -10 -2 2 -10 -1 -18 -8 -7 -6 -16 -8 -19 -5 -3 3 7 12 23
21 35 19 48 20 31 2z m471 -3 c-3 -20 2 -27 10 -14 8 12 12 12 25 2 8 -7 19
-10 24 -7 5 3 18 -4 28 -17 11 -12 12 -17 4 -11 -8 6 -30 11 -49 13 -19 1 -40
6 -46 11 -7 5 -15 7 -19 3 -4 -4 -4 0 0 10 6 17 25 25 23 10z m-812 -40 c-3
-10 -5 -4 -5 12 0 17 2 24 5 18 2 -7 2 -21 0 -30z m-2000 -15 c-3 -7 -5 -2 -5
12 0 14 2 19 5 13 2 -7 2 -19 0 -25z m2380 26 c-3 -3 -12 -4 -19 -1 -8 3 -5 6
6 6 11 1 17 -2 13 -5z m628 -48 c7 -9 17 -15 21 -14 5 2 10 0 12 -4 1 -5 0 -8
-3 -9 -7 -1 -105 40 -105 45 0 11 65 -4 75 -18z m-1008 -23 c-3 -10 -5 -4 -5
12 0 17 2 24 5 18 2 -7 2 -21 0 -30z m-1997 17 c0 -5 -2 -10 -4 -10 -3 0 -8 5
-11 10 -3 6 -1 10 4 10 6 0 11 -4 11 -10z m0 -93 c0 -44 5 -79 12 -87 7 -8 4
-7 -7 3 -16 14 -20 30 -20 87 0 39 3 70 8 70 4 0 7 -33 7 -73z m3107 38 c0
-10 -4 -11 -19 -2 -10 7 -18 15 -18 20 0 4 -5 5 -12 1 -7 -4 -8 -3 -4 4 9 15
53 -4 53 -23z m-1376 -26 c9 -37 -7 -62 -19 -29 -6 16 -6 29 0 37 6 8 3 13 -9
17 -16 4 -16 5 1 3 12 -1 22 -13 27 -28z m266 -16 c-3 -10 -5 -4 -5 12 0 17 2
24 5 18 2 -7 2 -21 0 -30z m-1436 4 c-10 -9 -11 -8 -5 6 3 10 9 15 12 12 3 -3
0 -11 -7 -18z m-787 -3 c3 -8 2 -12 -4 -9 -6 3 -10 10 -10 16 0 14 7 11 14 -7z
m3391 -2 c-3 -3 -11 0 -18 7 -9 10 -8 11 6 5 10 -3 15 -9 12 -12z m-4202 -9
c-7 -2 -19 -2 -25 0 -7 3 -2 5 12 5 14 0 19 -2 13 -5z m-172 -23 c-13 -11 -33
-20 -45 -20 -15 0 -10 6 19 19 51 25 55 25 26 1z m1770 -3 c-10 -9 -11 -8 -5
6 3 10 9 15 12 12 3 -3 0 -11 -7 -18z m1436 -24 c-3 -10 -5 -4 -5 12 0 17 2
24 5 18 2 -7 2 -21 0 -30z m-2943 12 c4 -13 2 -14 -14 -5 -23 13 -26 20 -6 20
8 0 16 -7 20 -15z m2705 -36 c7 -23 10 -43 7 -46 -11 -12 -34 7 -38 31 -3 14
-1 23 3 20 5 -3 9 -11 9 -19 0 -8 4 -16 9 -19 4 -3 6 6 3 19 -2 14 -8 28 -13
31 -11 7 -12 24 -1 24 5 0 14 -18 21 -41z m-2834 17 c18 -13 18 -14 -8 -9 -15
3 -30 9 -33 14 -8 14 20 10 41 -5z m3077 -46 c3 -17 1 -33 -4 -36 -4 -3 -8 11
-8 30 0 44 6 47 12 6z m-2991 -7 c13 -16 12 -17 -3 -4 -10 7 -18 15 -18 17 0
8 8 3 21 -13z m3044 -23 c-9 -16 -18 -30 -21 -30 -2 0 2 14 11 30 9 17 18 30
21 30 2 0 -2 -13 -11 -30z m-2001 4 c3 -8 2 -12 -4 -9 -6 3 -10 10 -10 16 0
14 7 11 14 -7z m1729 -36 c5 -21 5 -21 -7 -6 -7 10 -17 14 -21 10 -5 -4 -5 -1
-1 6 11 19 23 14 29 -10z m212 2 c3 -5 1 -10 -4 -10 -6 0 -11 5 -11 10 0 6 2
10 4 10 3 0 8 -4 11 -10z m-2842 -20 c3 -11 1 -18 -4 -14 -5 3 -9 12 -9 20 0
20 7 17 13 -6z m958 -21 l22 -31 -22 12 c-13 6 -20 14 -17 17 3 4 1 12 -5 20
-6 7 -9 13 -6 13 3 0 16 -14 28 -31z m-2714 -41 c-2 -13 -4 -3 -4 22 0 25 2
35 4 23 2 -13 2 -33 0 -45z m2542 28 c-3 -3 -11 5 -18 17 -13 21 -12 21 5 5
10 -10 16 -20 13 -22z m2077 -12 c-8 -21 -15 -34 -15 -28 -1 15 20 76 25 71 2
-2 -2 -21 -10 -43z m904 31 c7 -9 8 -15 2 -15 -5 0 -12 7 -16 15 -3 8 -4 15
-2 15 2 0 9 -7 16 -15z m1345 6 c3 -5 2 -12 -3 -15 -5 -3 -9 1 -9 9 0 17 3 19
12 6z m-3708 -23 c-3 -8 -6 -5 -6 6 -1 11 2 17 5 13 3 -3 4 -12 1 -19z m1223
-23 c0 -5 -5 -3 -10 5 -5 8 -10 20 -10 25 0 6 5 3 10 -5 5 -8 10 -19 10 -25z
m2475 -7 c-7 -22 -47 -68 -60 -68 -13 0 -3 19 14 25 10 3 24 19 31 35 15 35
24 40 15 8z m-3698 -10 c-3 -8 -6 -5 -6 6 -1 11 2 17 5 13 3 -3 4 -12 1 -19z
m1257 -23 c-3 -7 2 -20 11 -29 9 -9 12 -16 5 -16 -6 0 -15 11 -21 24 -7 14
-17 22 -25 19 -8 -3 -14 -1 -14 5 0 5 7 13 16 16 8 3 12 12 9 18 -4 7 0 5 9
-5 8 -11 12 -25 10 -32z m-1663 18 c13 -16 12 -17 -3 -4 -17 13 -22 21 -14 21
2 0 10 -8 17 -17z m1809 -3 c0 -11 -4 -20 -9 -20 -5 0 -7 9 -4 20 3 11 7 20 9
20 2 0 4 -9 4 -20z m-4210 -26 c0 -3 -7 -1 -15 6 -8 7 -15 17 -15 22 0 5 7 3
15 -6 8 -8 15 -18 15 -22z m1398 9 c-2 -21 1 -27 12 -25 8 2 11 0 7 -4 -20
-21 -35 -11 -34 22 1 19 6 34 10 34 5 0 7 -12 5 -27z m842 7 c0 -5 -2 -10 -4
-10 -3 0 -8 5 -11 10 -3 6 -1 10 4 10 6 0 11 -4 11 -10z m-2586 -58 c1 -28 -1
-49 -4 -47 -4 2 -8 28 -9 57 -2 66 9 58 13 -10z m3154 33 c-3 -3 -9 2 -12 12
-6 14 -5 15 5 6 7 -7 10 -15 7 -18z m1439 3 c-3 -8 -6 -5 -6 6 -1 11 2 17 5
13 3 -3 4 -12 1 -19z m-1817 3 c0 -6 -4 -13 -10 -16 -5 -3 -10 1 -10 9 0 9 5
16 10 16 6 0 10 -4 10 -9z m1764 -16 c-4 -8 -11 -12 -16 -9 -6 4 -5 10 3 15
19 12 19 11 13 -6z m-4101 -2 c-7 -2 -19 -2 -25 0 -7 3 -2 5 12 5 14 0 19 -2
13 -5z m137 3 c0 -2 -11 -6 -25 -8 -14 -3 -25 -1 -25 3 0 5 11 9 25 9 14 0 25
-2 25 -4z m50 0 c0 -3 -4 -8 -10 -11 -5 -3 -10 -1 -10 4 0 6 5 11 10 11 6 0
10 -2 10 -4z m60 0 c0 -3 -4 -8 -10 -11 -5 -3 -10 -1 -10 4 0 6 5 11 10 11 6
0 10 -2 10 -4z m120 -6 c0 -5 -2 -10 -4 -10 -3 0 -8 5 -11 10 -3 6 -1 10 4 10
6 0 11 -4 11 -10z m35 0 c3 -5 1 -10 -4 -10 -6 0 -11 5 -11 10 0 6 2 10 4 10
3 0 8 -4 11 -10z m95 4 c0 -8 -19 -13 -24 -6 -3 5 1 9 9 9 8 0 15 -2 15 -3z
m100 -9 c0 -2 -9 -3 -19 -2 -11 0 -18 5 -15 9 4 6 34 0 34 -7z m34 7 c3 -5 -1
-9 -9 -9 -8 0 -12 4 -9 9 3 4 7 8 9 8 2 0 6 -4 9 -8z m82 -18 c2 -25 1 -25
-12 -6 -9 14 -21 19 -36 15 -19 -4 -20 -3 -8 6 28 20 55 13 56 -15z m2134 -2
c0 -15 -2 -15 -10 -2 -13 20 -13 33 0 25 6 -3 10 -14 10 -23z m2174 20 c3 -5
-1 -9 -9 -9 -8 0 -12 4 -9 9 3 4 7 8 9 8 2 0 6 -4 9 -8z m64 3 c-10 -11 -48
-14 -48 -4 0 5 12 9 27 9 14 0 24 -2 21 -5z m1252 0 c0 -7 -30 -13 -34 -7 -3
4 4 9 15 9 10 1 19 0 19 -2z m-3626 -21 c3 -8 2 -12 -4 -9 -6 3 -10 10 -10 16
0 14 7 11 14 -7z m2444 -9 c-3 -3 -9 2 -12 12 -6 14 -5 15 5 6 7 -7 10 -15 7
-18z m466 18 c-5 -5 -12 -12 -15 -16 -3 -5 -9 -2 -12 7 -5 12 0 16 15 16 12 0
17 -3 12 -7z m659 0 c-7 -2 -19 -2 -25 0 -7 3 -2 5 12 5 14 0 19 -2 13 -5z
m464 -30 c-3 -10 -5 -4 -5 12 0 17 2 24 5 18 2 -7 2 -21 0 -30z m-5511 -45
c-19 -27 -20 -22 -4 23 8 23 13 28 16 17 2 -10 -4 -28 -12 -40z m2900 -33 c-5
-41 -12 -75 -16 -75 -3 0 -1 34 4 75 5 41 12 75 16 75 3 0 1 -34 -4 -75z
m-3406 37 c0 -15 -2 -15 -10 -2 -13 20 -13 33 0 25 6 -3 10 -14 10 -23z m3785
5 c-4 -13 -7 -38 -9 -55 -1 -17 -5 -34 -8 -37 -7 -7 -2 57 7 93 3 12 8 22 10
22 3 0 3 -10 0 -23z m-3111 -33 c3 -8 2 -12 -4 -9 -6 3 -10 10 -10 16 0 14 7
11 14 -7z m5336 12 c0 -3 -4 -8 -10 -11 -5 -3 -10 -1 -10 4 0 6 5 11 10 11 6
0 10 -2 10 -4z m-1097 -36 c3 -11 1 -18 -4 -14 -5 3 -9 12 -9 20 0 20 7 17 13
-6z m-6029 -40 c-6 -5 -24 21 -24 34 0 6 6 1 14 -10 8 -10 12 -21 10 -24z
m3269 20 c3 -11 1 -18 -4 -14 -5 3 -9 12 -9 20 0 20 7 17 13 -6z m-173 -5 c0
-8 -2 -15 -4 -15 -2 0 -6 7 -10 15 -3 8 -1 15 4 15 6 0 10 -7 10 -15z m-405
-5 c3 -5 1 -10 -4 -10 -6 0 -11 5 -11 10 0 6 2 10 4 10 3 0 8 -4 11 -10z
m4373 -35 c-18 -24 -39 -44 -45 -45 -7 0 -13 -4 -13 -8 0 -5 -12 -15 -27 -23
-48 -23 -49 -22 -8 9 22 16 58 48 80 71 21 22 41 41 42 41 2 0 -11 -20 -29
-45z m-6957 -67 c8 -3 11 -8 8 -12 -4 -4 -29 15 -56 41 -35 33 -37 37 -8 12
23 -20 48 -38 56 -41z m4294 22 c5 -16 4 -22 -3 -15 -5 6 -12 24 -16 40 -7 34
7 15 19 -25z m490 41 c3 -5 2 -12 -3 -15 -5 -3 -9 1 -9 9 0 17 3 19 12 6z
m1149 -7 c3 -8 2 -12 -4 -9 -6 3 -10 10 -10 16 0 14 7 11 14 -7z m-4549 -4
c-3 -5 -12 -10 -18 -10 -7 0 -6 4 3 10 19 12 23 12 15 0z m302 -15 c0 -8 -4
-12 -9 -9 -4 3 -8 9 -8 15 0 5 4 9 8 9 5 0 9 -7 9 -15z m1303 5 c0 -5 -5 -10
-11 -10 -5 0 -7 5 -4 10 3 6 8 10 11 10 2 0 4 -4 4 -10z m184 -6 c3 -8 2 -12
-4 -9 -6 3 -10 10 -10 16 0 14 7 11 14 -7z m1232 -19 c1 -14 -2 -25 -6 -25 -6
0 -7 36 -1 48 4 7 6 -1 7 -23z m1534 -25 c0 -22 -2 -40 -4 -40 -2 0 -6 18 -8
40 -2 22 0 40 4 40 5 0 8 -18 8 -40z m-4253 0 c-5 -29 -13 -33 -13 -5 0 14 4
25 8 25 4 0 7 -9 5 -20z m-617 -13 c0 -5 -6 -7 -14 -4 -8 3 -17 -1 -20 -10 -4
-9 -9 -13 -13 -10 -9 9 14 34 32 34 8 0 15 -5 15 -10z m240 3 c0 -5 -5 -10
-11 -10 -5 0 -7 5 -4 10 3 6 8 10 11 10 2 0 4 -4 4 -10z m129 1 c10 -7 7 -9
-12 -8 -14 1 -23 5 -20 10 6 9 15 9 32 -2z m2858 -13 c-3 -8 -6 -5 -6 6 -1 11
2 17 5 13 3 -3 4 -12 1 -19z m-1110 -10 c-3 -8 -6 -5 -6 6 -1 11 2 17 5 13 3
-3 4 -12 1 -19z m907 4 c3 -5 -1 -9 -9 -9 -8 0 -12 4 -9 9 3 4 7 8 9 8 2 0 6
-4 9 -8z m316 4 c0 -3 -4 -8 -10 -11 -5 -3 -10 -1 -10 4 0 6 5 11 10 11 6 0
10 -2 10 -4z m-717 -18 c-2 -5 -13 -8 -24 -8 -10 0 -19 3 -19 8 0 4 11 7 24 7
13 0 22 -3 19 -7z m47 6 c0 -8 -19 -13 -24 -6 -3 5 1 9 9 9 8 0 15 -2 15 -3z
m153 -1 c-7 -2 -21 -2 -30 0 -10 3 -4 5 12 5 17 0 24 -2 18 -5z m50 0 c-7 -2
-19 -2 -25 0 -7 3 -2 5 12 5 14 0 19 -2 13 -5z m-2253 -13 c0 -5 -2 -10 -4
-10 -3 0 -8 5 -11 10 -3 6 -1 10 4 10 6 0 11 -4 11 -10z m1943 3 c-7 -2 -21
-2 -30 0 -10 3 -4 5 12 5 17 0 24 -2 18 -5z m-3367 -21 c-10 -2 -22 0 -28 6
-6 6 0 7 19 4 21 -5 23 -7 9 -10z m5679 9 c3 -5 1 -12 -5 -16 -5 -3 -10 1 -10
9 0 18 6 21 15 7z m435 -8 c0 -5 -15 -8 -34 -8 -19 0 -32 3 -29 8 2 4 17 7 34
7 16 0 29 -3 29 -7z m37 1 c-3 -3 -12 -4 -19 -1 -8 3 -5 6 6 6 11 1 17 -2 13
-5z m90 0 c-3 -3 -12 -4 -19 -1 -8 3 -5 6 6 6 11 1 17 -2 13 -5z m-2101 -42
c2 -45 15 -146 21 -157 4 -7 2 -7 -5 0 -5 6 -13 30 -17 55 -9 57 -12 141 -5
134 3 -3 5 -18 6 -32z m-2725 5 c-10 -9 -11 -8 -5 6 3 10 9 15 12 12 3 -3 0
-11 -7 -18z m1529 13 c0 -5 -2 -10 -4 -10 -3 0 -8 5 -11 10 -3 6 -1 10 4 10 6
0 11 -4 11 -10z m2727 -67 c-2 -16 -4 -5 -4 22 0 28 2 40 4 28 2 -13 2 -35 0
-50z m-5300 22 c0 -8 -4 -12 -9 -9 -5 3 -6 10 -3 15 9 13 12 11 12 -6z m1053
5 c0 -5 -2 -10 -4 -10 -3 0 -8 5 -11 10 -3 6 -1 10 4 10 6 0 11 -4 11 -10z
m-1053 -62 c-3 -7 -5 -2 -5 12 0 14 2 19 5 13 2 -7 2 -19 0 -25z m1050 -15
c-3 -10 -5 -2 -5 17 0 19 2 27 5 18 2 -10 2 -26 0 -35z m3344 -1 c-30 -2 -58
0 -62 5 -4 4 20 6 54 3 l62 -5 -54 -3z m901 -26 c-6 -49 -13 -46 -10 3 1 22 5
38 8 36 3 -2 4 -20 2 -39z m-4905 -8 c-3 -7 -5 -2 -5 12 0 14 2 19 5 13 2 -7
2 -19 0 -25z m5287 -20 c-3 -29 -8 -55 -10 -58 -3 -2 -3 20 0 50 6 64 5 60 10
60 3 0 2 -24 0 -52z m-5669 33 c3 -5 2 -12 -3 -15 -5 -3 -9 1 -9 9 0 17 3 19
12 6z m2593 -16 c-3 -3 -9 2 -12 12 -6 14 -5 15 5 6 7 -7 10 -15 7 -18z m732
15 c0 -5 -2 -10 -4 -10 -3 0 -8 5 -11 10 -3 6 -1 10 4 10 6 0 11 -4 11 -10z
m220 0 c0 -5 -2 -10 -4 -10 -3 0 -8 5 -11 10 -3 6 -1 10 4 10 6 0 11 -4 11
-10z m-3163 -52 c-3 -8 -6 -5 -6 6 -1 11 2 17 5 13 3 -3 4 -12 1 -19z m2218
12 c3 -5 1 -10 -4 -10 -6 0 -11 5 -11 10 0 6 2 10 4 10 3 0 8 -4 11 -10z
m-2595 -20 c0 -5 -2 -10 -4 -10 -3 0 -8 5 -11 10 -3 6 -1 10 4 10 6 0 11 -4
11 -10z m1050 6 c0 -3 -4 -8 -10 -11 -5 -3 -10 -1 -10 4 0 6 5 11 10 11 6 0
10 -2 10 -4z m1271 -23 c-12 -20 -14 -14 -5 12 4 9 9 14 11 11 3 -2 0 -13 -6
-23z m276 -5 c-3 -8 -6 -5 -6 6 -1 11 2 17 5 13 3 -3 4 -12 1 -19z m-2212 3
c3 -5 2 -12 -3 -15 -5 -3 -9 1 -9 9 0 17 3 19 12 6z m-388 -43 c1 -26 -1 -29
-7 -13 -6 17 -3 45 5 45 1 0 2 -15 2 -32z m5266 17 c-3 -9 -8 -14 -10 -11 -3
3 -2 9 2 15 9 16 15 13 8 -4z m-4218 -15 c-1 -11 -4 -22 -7 -25 -4 -5 -4 34 1
43 4 8 7 -1 6 -18z m1562 -2 c-3 -8 -6 -5 -6 6 -1 11 2 17 5 13 3 -3 4 -12 1
-19z m3041 -24 c-1 -19 -5 -37 -9 -40 -4 -2 -6 4 -4 13 2 10 4 28 4 41 1 12 3
22 6 22 3 0 5 -16 3 -36z m-5264 -24 c-5 -5 -10 3 -11 18 -1 22 0 24 9 8 6
-10 6 -22 2 -26z m2234 -1 c-3 -8 -7 -3 -11 10 -4 17 -3 21 5 13 5 -5 8 -16 6
-23z m-2231 -51 c-3 -7 -5 -2 -5 12 0 14 2 19 5 13 2 -7 2 -19 0 -25z m2240 0
c-3 -7 -5 -2 -5 12 0 14 2 19 5 13 2 -7 2 -19 0 -25z m3006 -8 c-3 -12 -8 -19
-11 -16 -5 6 5 36 12 36 2 0 2 -9 -1 -20z m-5636 -32 c-3 -7 -5 -2 -5 12 0 14
2 19 5 13 2 -7 2 -19 0 -25z m2643 2 c6 -11 8 -20 6 -20 -3 0 -10 9 -16 20 -6
11 -8 20 -6 20 3 0 10 -9 16 -20z m-2253 -12 c-3 -8 -6 -5 -6 6 -1 11 2 17 5
13 3 -3 4 -12 1 -19z m5230 -10 c-3 -8 -6 -5 -6 6 -1 11 2 17 5 13 3 -3 4 -12
1 -19z m-4569 -13 c-3 -3 -9 2 -12 12 -6 14 -5 15 5 6 7 -7 10 -15 7 -18z
m2020 18 c-10 -2 -18 -9 -18 -15 0 -6 -3 -9 -6 -5 -10 10 6 27 24 26 15 -1 15
-2 0 -6z m75 0 c-7 -2 -19 -2 -25 0 -7 3 -2 5 12 5 14 0 19 -2 13 -5z m421 -9
c3 -8 2 -12 -4 -9 -6 3 -10 10 -10 16 0 14 7 11 14 -7z m-3560 -28 c2 -14 0
-23 -4 -21 -4 3 -7 16 -7 30 0 32 8 26 11 -9z m3376 30 c0 -2 -7 -7 -16 -10
-8 -3 -12 -2 -9 4 6 10 25 14 25 6z m-2987 -31 c4 -8 3 -16 -1 -19 -4 -3 -9 4
-9 15 -2 23 3 25 10 4z m654 -27 c-3 -7 -5 -2 -5 12 0 14 2 19 5 13 2 -7 2
-19 0 -25z m404 9 c-10 -9 -11 -8 -5 6 3 10 9 15 12 12 3 -3 0 -11 -7 -18z
m2429 -30 c0 -16 -18 3 -23 25 -6 22 -5 22 8 4 8 -11 15 -24 15 -29z m-1222 8
c-3 -3 -9 2 -12 12 -6 14 -5 15 5 6 7 -7 10 -15 7 -18z m-2655 -20 c-7 -21
-12 -19 -10 4 0 11 5 18 9 15 4 -3 5 -11 1 -19z m397 21 c0 -3 -4 -8 -10 -11
-5 -3 -10 -1 -10 4 0 6 5 11 10 11 6 0 10 -2 10 -4z m1053 -21 c-7 -21 -12
-19 -10 4 0 11 5 18 9 15 4 -3 5 -11 1 -19z m3707 5 c-6 -11 -13 -20 -16 -20
-2 0 0 9 6 20 6 11 13 20 16 20 2 0 0 -9 -6 -20z m-4113 -12 c-3 -8 -6 -5 -6
6 -1 11 2 17 5 13 3 -3 4 -12 1 -19z m1623 -23 c0 -5 -5 -3 -10 5 -5 8 -10 20
-10 25 0 6 5 3 10 -5 5 -8 10 -19 10 -25z m1230 13 c0 -6 10 -23 23 -37 l22
-26 -23 20 c-29 24 -47 55 -32 55 5 0 10 -5 10 -12z m-3503 -40 c-3 -8 -6 -5
-6 6 -1 11 2 17 5 13 3 -3 4 -12 1 -19z m4714 -6 c-11 -16 -28 -35 -38 -43 -9
-8 -2 5 17 29 38 48 52 57 21 14z m-2427 -42 c7 -53 1 -44 -13 19 -5 24 -6 39
-1 35 4 -5 11 -29 14 -54z m-2676 25 c-3 -3 -9 2 -12 12 -6 14 -5 15 5 6 7 -7
10 -15 7 -18z m1632 -17 l23 -33 -26 24 c-15 14 -27 28 -27 33 0 14 5 9 30
-24z m-1237 7 c4 -8 3 -16 -1 -19 -4 -3 -9 4 -9 15 -2 23 3 25 10 4z m349 -57
c-6 -6 -7 0 -4 19 5 21 7 23 10 9 2 -10 0 -22 -6 -28z m-349 7 c-3 -9 -8 -14
-10 -11 -3 3 -2 9 2 15 9 16 15 13 8 -4z m1278 -12 c13 -16 12 -17 -3 -4 -10
7 -18 15 -18 17 0 8 8 3 21 -13z m-1674 -40 c-3 -10 -5 -2 -5 17 0 19 2 27 5
18 2 -10 2 -26 0 -35z m1049 7 c1 -17 -1 -30 -5 -30 -4 0 -7 16 -7 35 0 41 9
37 12 -5z m1644 20 c0 -5 -2 -10 -4 -10 -3 0 -8 5 -11 10 -3 6 -1 10 4 10 6 0
11 -4 11 -10z m2310 -5 c-7 -9 -27 -25 -44 -37 -23 -15 -21 -11 9 16 43 38 55
45 35 21z m-3299 -22 c13 -16 12 -17 -3 -4 -17 13 -22 21 -14 21 2 0 10 -8 17
-17z m996 -8 c0 -8 -4 -12 -9 -9 -5 3 -6 10 -3 15 9 13 12 11 12 -6z m-2299
-20 c-3 -3 -9 2 -12 12 -6 14 -5 15 5 6 7 -7 10 -15 7 -18z m-388 1 c0 -3 -4
-8 -10 -11 -5 -3 -10 -1 -10 4 0 6 5 11 10 11 6 0 10 -2 10 -4z m4081 -23 c13
-16 12 -17 -3 -4 -10 7 -18 15 -18 17 0 8 8 3 21 -13z m829 13 c0 -2 -16 -13
-35 -25 -19 -11 -35 -18 -35 -16 0 5 61 45 68 45 1 0 2 -2 2 -4z m-3151 -50
c-2 -2 -13 8 -23 22 l-19 27 24 -22 c12 -12 21 -24 18 -27z m1214 19 c-7 -21
-12 -19 -10 4 0 11 5 18 9 15 4 -3 5 -11 1 -19z m1207 -41 c0 -2 -13 2 -30 11
-16 9 -30 18 -30 21 0 2 14 -2 30 -11 17 -9 30 -18 30 -21z m-3785 16 c3 -5 1
-10 -4 -10 -6 0 -11 5 -11 10 0 6 2 10 4 10 3 0 8 -4 11 -10z m4434 6 c-2 -2
-29 -14 -59 -26 -30 -12 -51 -18 -47 -13 5 4 27 16 50 25 41 16 65 22 56 14z
m-3791 -32 c0 -17 -3 -22 -8 -13 -5 6 -6 18 -3 26 8 19 11 16 11 -13z m1239 4
c-3 -8 -6 -5 -6 6 -1 11 2 17 5 13 3 -3 4 -12 1 -19z m431 -13 c-3 -3 -9 2
-12 12 -6 14 -5 15 5 6 7 -7 10 -15 7 -18z m686 7 c2 -4 -10 -8 -27 -9 -30 -1
-30 -1 -7 7 14 4 26 8 27 9 1 1 4 -3 7 -7z m-419 -43 c-2 -23 -8 -46 -12 -50
-13 -13 -55 -20 -48 -8 4 5 10 7 14 5 18 -11 35 15 34 53 0 23 3 41 7 41 5 0
7 -19 5 -41z m615 15 c0 -2 -9 0 -20 6 -11 6 -20 13 -20 16 0 2 9 0 20 -6 11
-6 20 -13 20 -16z m-1300 6 c0 -5 -5 -10 -11 -10 -5 0 -7 5 -4 10 3 6 8 10 11
10 2 0 4 -4 4 -10z m-1569 -23 c-6 -8 -8 -17 -4 -20 3 -4 1 -7 -5 -7 -15 0
-15 13 0 28 16 16 23 15 9 -1z m3694 3 c3 -5 1 -10 -4 -10 -6 0 -11 5 -11 10
0 6 2 10 4 10 3 0 8 -4 11 -10z m65 -2 c0 -5 -9 -8 -19 -8 -11 0 -22 3 -24 8
-3 4 6 7 19 7 13 0 24 -3 24 -7z m80 3 c0 -4 -16 -7 -35 -8 -19 0 -35 2 -35 6
0 4 16 7 35 8 19 0 35 -2 35 -6z m-3125 -10 c-9 -8 -36 -10 -30 -2 2 4 11 8
20 8 8 0 13 -3 10 -6z m847 -26 c-6 -34 -13 -32 -10 4 1 16 5 28 9 26 3 -3 4
-16 1 -30z m-2278 -1 c3 -8 2 -12 -4 -9 -6 3 -10 10 -10 16 0 14 7 11 14 -7z
m1041 -4 c-3 -4 0 -11 5 -13 6 -3 5 -4 -1 -3 -7 1 -13 10 -15 19 -1 9 2 15 7
11 5 -3 7 -9 4 -14z m814 -14 c-3 -3 -11 5 -18 17 -13 21 -12 21 5 5 10 -10
16 -20 13 -22z m-1394 4 c3 -6 -1 -7 -9 -4 -18 7 -21 14 -7 14 6 0 13 -4 16
-10z m2265 0 c0 -5 -2 -10 -4 -10 -3 0 -8 5 -11 10 -3 6 -1 10 4 10 6 0 11 -4
11 -10z m925 0 c3 -5 1 -10 -4 -10 -6 0 -11 5 -11 10 0 6 2 10 4 10 3 0 8 -4
11 -10z m-2528 -6 c-3 -3 -12 -4 -19 -1 -8 3 -5 6 6 6 11 1 17 -2 13 -5z
m-1122 -14 c3 -5 1 -10 -4 -10 -6 0 -11 5 -11 10 0 6 2 10 4 10 3 0 8 -4 11
-10z m2045 0 c0 -5 -17 -9 -37 -9 l-38 2 35 7 c19 4 36 8 38 9 1 0 2 -3 2 -9z
m40 0 c0 -5 -8 -10 -17 -10 -15 0 -16 2 -3 10 19 12 20 12 20 0z m120 4 c0 -8
-19 -13 -24 -6 -3 5 1 9 9 9 8 0 15 -2 15 -3z m686 -3 c-9 -13 -56 -20 -63 -8
-3 5 -2 8 3 5 5 -3 18 -2 29 3 27 10 37 11 31 0z m-151 -11 c3 -5 2 -10 -4
-10 -5 0 -13 5 -16 10 -3 6 -2 10 4 10 5 0 13 -4 16 -10z m35 -10 c0 -5 -5
-10 -11 -10 -5 0 -7 5 -4 10 3 6 8 10 11 10 2 0 4 -4 4 -10z m-2773 -15 c0 -8
-4 -12 -9 -9 -5 3 -6 10 -3 15 9 13 12 11 12 -6z m5253 1 c0 -2 -8 -10 -17
-17 -16 -13 -17 -12 -4 4 13 16 21 21 21 13z m-1497 -47 l32 -31 -37 27 c-21
15 -38 29 -38 31 0 10 14 1 43 -27z m-3748 1 c3 -5 1 -10 -4 -10 -6 0 -11 5
-11 10 0 6 2 10 4 10 3 0 8 -4 11 -10z m3322 -15 c0 -8 -4 -15 -9 -15 -10 0
-11 14 -1 23 9 10 10 9 10 -8z m1863 7 c0 -5 -12 -14 -27 -21 l-28 -11 24 20
c26 22 31 24 31 12z m-60 -39 c0 -5 -15 -16 -33 -26 l-32 -17 28 25 c30 26 37
30 37 18z m-1837 -38 c-3 -9 -8 -14 -10 -11 -3 3 -2 9 2 15 9 16 15 13 8 -4z
m1767 -5 c0 -6 -12 -16 -27 -23 -16 -6 -30 -14 -33 -17 -10 -10 -101 -50 -115
-50 -8 0 -15 -4 -15 -10 0 -5 -7 -7 -15 -4 -8 4 -21 2 -28 -4 -30 -23 -157
-49 -157 -31 0 4 17 10 38 14 65 12 215 65 282 99 36 19 66 34 68 35 1 0 2 -4
2 -9z m-4950 -87 c0 -10 -21 10 -51 50 l-32 42 42 -44 c22 -24 41 -45 41 -48z
m3170 64 c0 -2 -10 -12 -21 -23 -22 -19 -22 -19 -8 4 12 19 29 30 29 19z
m-3080 -124 c3 -3 -9 1 -26 10 -17 9 -37 23 -44 33 -12 14 55 -27 70 -43z
m3010 43 c0 -2 -8 -10 -17 -17 -16 -13 -17 -12 -4 4 13 16 21 21 21 13z m-67
-51 c-3 -9 -8 -14 -10 -11 -3 3 -2 9 2 15 9 16 15 13 8 -4z m1133 2 c3 -3 -6
-4 -22 -1 -37 7 -47 16 -12 12 15 -2 30 -7 34 -11z m344 1 c0 -4 -6 -8 -12 -9
-7 0 -20 -2 -28 -4 -49 -10 -80 -8 -80 4 0 4 16 7 36 6 19 -1 37 1 39 5 5 9
45 7 45 -2z m40 8 c0 -2 -7 -6 -15 -10 -8 -3 -15 -1 -15 4 0 6 7 10 15 10 8 0
15 -2 15 -4z m-4382 -27 c23 -6 42 -15 42 -20 0 -9 -69 13 -98 31 -11 7 -11 9
-2 6 8 -3 34 -10 58 -17z m4152 8 c0 -5 8 -3 18 4 15 12 16 12 5 -1 -8 -11
-25 -14 -60 -11 -37 3 -42 6 -23 10 35 9 60 8 60 -2z m60 4 c0 -5 -7 -12 -16
-15 -14 -5 -15 -4 -4 9 14 17 20 19 20 6z m-2968 -17 c-18 -8 -49 -17 -70 -20
-20 -3 -42 -7 -48 -9 -6 -2 -17 1 -25 6 -10 6 -8 9 11 10 46 1 100 9 122 19
37 14 46 10 10 -6z m908 11 c0 -2 -10 -9 -22 -15 -22 -11 -22 -10 -4 4 21 17
26 19 26 11z m80 -33 c3 -2 -6 -1 -20 3 -14 4 -32 14 -40 22 -11 10 -5 9 20
-3 19 -9 37 -19 40 -22z m-1676 10 c2 -4 -7 -8 -22 -9 -24 -2 -24 -1 -7 7 11
5 21 9 22 9 1 1 4 -3 7 -7z m80 0 c3 -5 -1 -9 -9 -9 -8 0 -12 4 -9 9 3 4 7 8
9 8 2 0 6 -4 9 -8z m803 2 c-3 -3 -12 -4 -19 -1 -8 3 -5 6 6 6 11 1 17 -2 13
-5z m-1337 -14 c11 -8 7 -9 -15 -4 -37 8 -45 14 -19 14 10 0 26 -5 34 -10z
m1478 -19 c2 0 6 -2 9 -5 3 -3 -5 -3 -18 -1 -60 11 -79 17 -84 25 -3 4 16 2
43 -6 26 -8 49 -14 50 -13z m457 19 c-3 -5 -14 -10 -23 -9 -14 0 -13 2 3 9 27
11 27 11 20 0z m-1898 -13 c0 -8 -6 -14 -13 -14 -7 0 -10 6 -7 14 3 7 8 13 12
13 4 0 8 -6 8 -13z m87 -1 c4 2 4 1 1 -3 -9 -12 -75 -9 -75 3 0 8 10 10 34 4
19 -4 37 -6 40 -4z m186 -2 c0 -2 -9 -4 -21 -4 -11 0 -18 4 -14 10 5 8 35 3
35 -6z m76 9 c-10 -10 -46 -11 -40 -1 3 4 15 8 26 8 12 0 18 -3 14 -7z m1820
-21 c-6 -6 -56 10 -56 18 0 5 13 3 30 -3 16 -6 28 -13 26 -15z m-1946 12 c0
-8 -19 -13 -24 -6 -3 5 1 9 9 9 8 0 15 -2 15 -3z m1595 -4 c-27 -12 -43 -12
-25 0 8 5 22 9 30 9 10 0 8 -3 -5 -9z m795 6 c0 -2 -7 -7 -16 -10 -8 -3 -12
-2 -9 4 6 10 25 14 25 6z m-1056 -18 c-3 -5 -17 -6 -31 -4 -39 8 -38 14 1 13
19 -1 32 -5 30 -9z m80 1 c3 -3 -6 -6 -20 -7 -14 -1 -23 2 -20 7 6 9 31 9 40
0z m136 7 c0 -2 -7 -6 -15 -10 -8 -3 -15 -1 -15 4 0 6 7 10 15 10 8 0 15 -2
15 -4z m770 -16 c-8 -5 -19 -10 -25 -10 -5 0 -3 5 5 10 8 5 20 10 25 10 6 0 3
-5 -5 -10z"/>
</g>
</svg>
